<?xml version="1.0" encoding="utf-8"?>
<svg version="1.1" xmlns:xlink="http://www.w3.org/1999/xlink" width="36px" height="36px" xmlns="http://www.w3.org/2000/svg">
  <g transform="matrix(1 0 0 1 -22 -12 )">
    <path d="M 18 0  C 17.8195218801498 0  17.8031813322566 0.00495000332593918  17.7912563323975 0.06328125  C 17.756887582317 0.231271876394749  17.7419534683228 0.474300009012222  17.7173440933228 1.265625  C 17.4610690802336 9.51086254119873  16.8139404773712 12.1589156627655  14.4864280700684 14.4864280700684  C 12.1593937397003 16.8134905099869  9.48639392852783 17.4673972159624  1.2796875 17.7173440933228  C 0.476212477684021 17.7418128434569  0.232537503540516 17.7566344588995  0.06328125 17.7912563323975  C 0.00495000332593918 17.8031813322566  0 17.8195218801498  0 18  C 0 18.1804781198502  0.00495000332593918 18.1968186677434  0.06328125 18.2087436676025  C 0.232537503540516 18.2433655411005  0.476212477684021 18.2581871565431  1.2796875 18.2826559066772  C 5.87522821426392 18.4226059019566  8.17801880836487 18.6379310131073  10.0265625 19.1004747390747  C 13.7106564044952 20.0222997665405  16.0650007724762 22.4077500343323  16.9348789215088 26.1  C 17.3732914298773 27.9608063220978  17.5688724786043 30.1121718406677  17.717259979248 34.70625  C 17.7319974789396 35.1625781357288  17.7568032905459 35.630859375  17.7723564147949 35.746875  C 17.7879095390439 35.862890625  17.8012123214663 35.9673187499866  17.8018873214722 35.97890625  C 17.802562321478 35.9904937500134  17.8917187526822 36  18 36  C 18.1082812473178 36  18.197437678522 35.9904937500134  18.1981126785278 35.97890625  C 18.1987876785337 35.9673187499866  18.2120904609561 35.862890625  18.2276435852051 35.746875  C 18.2431967094541 35.630859375  18.2680025210604 35.1625781357288  18.282740020752 34.70625  C 18.4311275213957 30.1121718406677  18.6267085701227 27.9608063220978  19.0651210784912 26.1  C 19.9349992275238 22.4077500343323  22.2893435955048 20.0222997665405  25.9734375 19.1004747390747  C 27.8219811916351 18.6379310131073  30.1247717857361 18.4226059019566  34.7203125 18.2826559066772  C 35.523787522316 18.2581871565431  35.7674624964595 18.2433655411005  35.93671875 18.2087436676025  C 35.9950499966741 18.1968186677434  36 18.1804781198502  36 18  C 36 17.8195218801498  35.9950499966741 17.8031813322566  35.93671875 17.7912563323975  C 35.7674624964595 17.7566344588995  35.523787522316 17.7418128434569  34.7203125 17.7173440933228  C 26.5136060714722 17.4673972159624  23.8406062602997 16.8134905099869  21.5135719299316 14.4864280700684  C 19.1860595226288 12.1589156627655  18.5389309197664 9.51086254119873  18.2826559066772 1.265625  C 18.2580465316772 0.474300009012222  18.243112417683 0.231271876394749  18.2087436676025 0.06328125  C 18.1968186677434 0.00495000332593918  18.1804781198502 0  18 0  Z " fill-rule="nonzero" fill="#ffffff" stroke="none" transform="matrix(1 0 0 1 22 12 )" />
  </g>
</svg>