<?xml version="1.0" encoding="utf-8"?>
<svg version="1.1" xmlns:xlink="http://www.w3.org/1999/xlink" width="30px" height="24px" xmlns="http://www.w3.org/2000/svg">
  <g transform="matrix(1 0 0 1 -25 -18 )">
    <path d="M 29.9973589781261 2.84556211183013  C 29.9973589781261 2.84556211183013  30 2.84166018101933  30 2.84166018101933  C 28.896767372216 3.32285671318762  27.711619044061 3.64798985952243  26.4656927982509 3.79494987705693  C 27.7367225334355 3.04584396617748  28.7117956686989 1.85715844927397  29.1715860319176 0.442180479803539  C 27.9824730208779 1.13666408791127  26.6651997297993 1.64127034451965  25.2633675901759 1.91178082956339  C 24.1403163518315 0.736100689287364  22.5416205075853 0  20.771163266813 0  C 17.3729424032946 0  14.6168414033604 2.71290793688199  14.6168414033604 6.06047496643484  C 14.6168414033604 6.53386829588195  14.6723331920158 6.99425686884316  14.7753896578289 7.43903853249697  C 9.65823998824644 7.18543496730304  5.12507714530736 4.77294942435358  2.08887504816463 1.10805253839452  C 1.56038035471595 2.00541902966447  1.25649616094206 3.04584396617748  1.25649616094206 4.15389650457199  C 1.25649616094206 6.25555491818782  2.34387399477995 8.11141347319593  3.99409858874174 9.19735695659319  C 2.98467374118641 9.16484367732716  2.03602586626399 8.89303243805561  1.20628918219296 8.43914705727317  C 1.20628918219296 8.43914705727317  1.20628918219296 8.51717823179032  1.20628918219296 8.51717823179032  C 1.20628918219296 11.4524770004992  3.32687421200904 13.901378225899  6.14375084579482 14.45800556267  C 5.62582606747811 14.5958618630758  5.08279776041093 14.668691222206  4.52259340031818 14.668691222206  C 4.12622237038769 14.668691222206  3.73909991775787 14.6322766395381  3.3638686787154 14.5620479555483  C 4.14736204314795 16.9680306163897  6.41988946517039 18.7211468472002  9.11389117024234 18.7679659666302  C 7.00651857371714 20.3936299057075  4.35215361725495 21.3625229839973  1.46921521077396 21.3625229839973  C 0.972430223345273 21.3625229839973  0.482251413186108 21.3339130865764  0 21.277990245173  C 2.72439015201248 22.9985928987588  5.95877725223347 24  9.43362996108273 24  C 20.7566281962854 24  26.9466233854927 14.7688316842735  26.9466233854927 6.7627617385049  C 26.9466233854927 6.50265550437665  26.940017282053 6.23994791198331  26.9281261521395 5.97984167785506  C 28.13045159647 5.12409219024703  29.1742284713246 4.05895771254577  29.9973589781261 2.84556211183013  Z " fill-rule="nonzero" fill="#ffffff" stroke="none" transform="matrix(1 0 0 1 25 18 )" />
  </g>
</svg>