<svg width="227" height="223" viewBox="0 0 227 223" fill="none" xmlns="http://www.w3.org/2000/svg">
<path d="M116.3 0L123.3 1L122.2 8.9L129.9 10L131 2.1L138 3.1L134.7 25.8L127.7 24.8L129 15.6L121.3 14.5L120 23.7L113 22.7L116.3 0Z" fill="white"/>
<path d="M141.8 15.9C143.4 12.5 145.5 10.3 148.3 9.30002C151.1 8.30002 154.1 8.50002 157.5 10.1C161 11.7 163.2 13.8 164.2 16.6C165.2 19.4 165 22.4 163.4 25.7C162.3 28.1 161 29.9 159.4 31.1C157.8 32.3 156.1 33 154.2 33.1C152.3 33.2 150.1 32.8 147.8 31.7C145.5 30.6 143.7 29.4 142.5 27.9C141.3 26.4 140.6 24.7 140.4 22.6C140.3 20.6 140.7 18.4 141.8 15.9ZM148.3 18.9C147.3 21 147 22.7 147.4 24C147.8 25.3 148.6 26.2 150 26.8C151.4 27.4 152.7 27.5 153.8 26.9C155 26.3 156.1 24.9 157.2 22.6C158.1 20.6 158.4 19 158 17.8C157.6 16.5 156.8 15.6 155.4 15C154.1 14.4 152.9 14.4 151.6 14.9C150.3 15.5 149.2 16.8 148.3 18.9Z" fill="white"/>
<path d="M175.5 20.3L185.6 28.9C187.3 30.3 188.2 31.8 188.4 33.4C188.6 35 188.2 36.4 187.1 37.6C186.2 38.6 185.1 39.2 183.9 39.4C183.1 39.5 182.1 39.4 181 39C182 40.4 182.5 41.7 182.4 42.9C182.4 44.1 181.9 45.3 180.9 46.4C180.1 47.3 179.2 47.9 178.2 48.3C177.2 48.7 176.1 48.7 175 48.5C174.3 48.4 173.5 48 172.5 47.3C171.2 46.4 170.3 45.8 169.9 45.5L160.6 37.6L175.5 20.3ZM169.2 38.6L172 41C172.9 41.8 173.7 42.2 174.4 42.2C175.1 42.2 175.6 41.9 176.1 41.4C176.5 40.9 176.7 40.3 176.6 39.7C176.5 39.1 176 38.3 175 37.5L172.3 35.2L169.2 38.6ZM175.1 31.8L177.4 33.8C178.2 34.5 178.9 34.9 179.5 34.9C180.1 34.9 180.6 34.6 181.1 34.1C181.5 33.6 181.7 33.1 181.6 32.5C181.5 31.9 181.1 31.3 180.2 30.6L177.8 28.6L175.1 31.8Z" fill="white"/>
<path d="M194.3 51.5L196.3 54.7C198.1 57.7 198.9 60.2 198.8 62.2C198.6 64.3 197.4 66 195.2 67.3C193.4 68.4 191.6 68.6 189.9 67.9C188.1 67.2 186.5 65.6 185 63.1L178.7 52.7L198.2 40.8L201.9 46.8L194.3 51.5ZM186.5 56.2L188.4 59.3C189.6 61.2 190.8 61.7 192.2 60.9C193.4 60.2 193.4 58.9 192.3 57L190.4 53.9L186.5 56.2ZM210.1 60.3L213.8 66.4L194.3 78.3L190.6 72.2L210.1 60.3Z" fill="white"/>
<path d="M221.9 97.9L199.5 102.9L198.1 96.4L210.4 93.7L196.2 88L194.8 81.5L217.2 76.5L218.6 83L206.2 85.7L220.4 91.4L221.9 97.9ZM226.3 91.6C225 91.7 223.8 91.3 222.8 90.4C221.8 89.6 221.1 88.4 220.8 87C220.5 85.6 220.6 84.3 221.2 83.1C221.8 81.9 222.7 81.1 223.9 80.6L224.5 83.3C223.3 84 222.9 85.1 223.2 86.5C223.5 88 224.4 88.9 225.8 89L226.3 91.6Z" fill="white"/>
<path d="M214.9 132.2L216.1 121.2L198.9 119.4L199.6 112.4L222.4 114.8L220.5 132.8L214.9 132.2Z" fill="white"/>
<path d="M208.5 135.6C212 136.9 214.3 138.9 215.6 141.6C216.8 144.3 216.8 147.4 215.4 150.8C214 154.4 212 156.7 209.4 157.9C206.8 159.1 203.7 159 200.3 157.7C197.8 156.7 195.9 155.5 194.6 154.1C193.3 152.7 192.5 151 192.2 149C191.9 147.1 192.2 144.9 193.1 142.5C194 140.1 195.2 138.2 196.5 136.9C197.8 135.6 199.6 134.8 201.6 134.4C203.7 134.3 206 134.6 208.5 135.6ZM205.9 142.2C203.7 141.4 202 141.2 200.8 141.6C199.5 142 198.7 143 198.1 144.3C197.6 145.7 197.6 147 198.2 148.1C198.8 149.2 200.3 150.3 202.7 151.2C204.7 152 206.3 152.1 207.6 151.7C208.8 151.2 209.7 150.3 210.3 148.9C210.8 147.6 210.7 146.3 210.1 145.1C209.5 144 208.1 143 205.9 142.2Z" fill="white"/>
<path d="M169.6 171.8L173.1 167.3L177.1 170.3L186 158.7L182 155.7L185.4 151.2L193.6 157.4L192.2 159.3C194.3 162.6 197.3 165.6 201 168.5L205.1 171.6L193.5 186.9L179.5 176.2L178 178.2L169.6 171.8ZM183.5 170.5L193.1 177.8L196.5 173.3L196.3 173.1C193.8 171.2 191 168.4 188 164.7L183.5 170.5Z" fill="white"/>
<path d="M182.1 197.3L175.7 201.6L167.8 195.6L170.5 205.2L164.5 209.2L160.8 190.3C160.5 188.8 160.4 187.6 160.3 186.8C160.3 186 160.5 185.1 161 184.2C161.5 183.3 162.4 182.4 163.7 181.6C164.4 181.1 165.6 180.4 167.5 179.5L170.2 183.4C169.1 184 168.4 184.4 167.9 184.7C166.5 185.6 166.1 186.7 166.5 187.9L182.1 197.3Z" fill="white"/>
<path d="M120.3 200.6L127.9 198.3L132.2 203.2C133.2 204.3 134 205 134.4 205.3C134.8 205.5 135.4 205.6 136 205.4L133.4 196.7L140.2 194.7L142.8 203.4C143.4 203.2 143.9 202.9 144.1 202.5C144.3 202.1 144.6 201.1 144.8 199.6L145.7 193.1L153.3 190.8L152.1 197.7C151.8 199.6 151.4 201.1 150.9 202.1C150.4 203.1 149.7 203.9 148.9 204.5C149.7 204.6 150.4 204.8 150.9 205.1C151.5 205.5 152.1 206.1 152.7 206.9C153.3 207.7 154 208.3 154.7 208.6C155.4 208.9 156.3 208.8 157.5 208.5L157.8 208.4L159.2 213C156.7 213.8 154.8 214.2 153.6 214.3C152.4 214.4 151.4 214.2 150.7 213.8C150 213.4 149.2 212.5 148.3 211.3C147.1 209.7 146.2 208.7 145.8 208.4C145.4 208.1 144.8 208 144.2 208.2L146.7 216.6L139.9 218.6L137.4 210.2C136.8 210.4 136.4 210.8 136.2 211.2C136 211.6 135.8 213 135.7 215C135.6 216.5 135.4 217.7 135 218.4C134.7 219.2 133.9 219.8 132.9 220.4C131.8 221 130 221.7 127.5 222.4L126.1 217.8L126.4 217.7C127.6 217.4 128.3 216.9 128.8 216.3C129.3 215.7 129.5 214.8 129.5 213.8C129.6 212.7 129.7 211.9 130 211.3C130.3 210.7 130.7 210.1 131.3 209.6C130.2 209.6 129.2 209.3 128.3 208.7C127.3 208.1 126.2 207.2 124.9 205.7L120.3 200.6Z" fill="white"/>
<path d="M118.7 222.4L99.7 222.1L99.8 217.2L111.7 217.4L111.8 213.8L100.8 213.6L100.9 208.9L111.9 209.1L112 204.6L99.8 204.4L99.9 199.2L119.2 199.5L118.7 222.4Z" fill="white"/>
<path d="M88.2001 208.8C86.9001 212.3 84.9001 214.7 82.3001 215.9C79.6001 217.1 76.5001 217.1 73.1001 215.8C69.5001 214.5 67.1001 212.5 65.9001 209.9C64.7001 207.3 64.7001 204.2 66.0001 200.8C66.9001 198.3 68.1001 196.4 69.5001 195.1C70.9001 193.8 72.6001 193 74.5001 192.7C76.4001 192.4 78.6001 192.7 81.0001 193.5C83.4001 194.4 85.3001 195.5 86.6001 196.9C87.9001 198.3 88.7001 199.9 89.1001 202C89.4001 204 89.1001 206.3 88.2001 208.8ZM81.6001 206.3C82.4001 204.1 82.6001 202.4 82.1001 201.2C81.6001 200 80.7001 199.1 79.3001 198.6C77.9001 198.1 76.6001 198.1 75.5001 198.8C74.4001 199.4 73.4001 201 72.5001 203.4C71.8001 205.4 71.6001 207.1 72.1001 208.3C72.6001 209.5 73.5001 210.4 74.9001 210.9C76.2001 211.4 77.5001 211.3 78.6001 210.7C79.8001 210 80.8001 208.5 81.6001 206.3Z" fill="white"/>
<path d="M50.7999 176.1L56.4999 180.3L51.4999 187.2C53.9999 187.5 55.9999 188.2 57.4999 189.4C59.3999 190.8 60.4999 192.5 60.8999 194.5C61.2999 196.5 60.7999 198.5 59.3999 200.4L54.3999 207.2L48.6999 203L52.8999 197.3C53.5999 196.4 53.8999 195.6 53.7999 194.8C53.6999 194 53.2999 193.3 52.4999 192.7C50.9999 191.6 49.5999 191.3 48.2999 191.7L43.0999 198.8L37.3999 194.6L50.7999 176.1Z" fill="white"/>
<path d="M30.7001 188.1L18.8 173.3L22.6 170.2L30.1 179.4L32.9001 177.1L26 168.5L29.6 165.6L36.5 174.2L40 171.4L32.3 161.9L36.3 158.6L48.4001 173.6L30.7001 188.1Z" fill="white"/>
<path d="M14 165.7L11.2 159.2L18.5 156L15.4 148.9L8.10005 152.1L5.30005 145.6L26.3 136.4L29 143L20.5 146.7L23.6 153.8L32.1 150.1L34.9001 156.6L14 165.7Z" fill="white"/>
<path d="M9.6 121.2L9.3 117.4C9.1 113.9 9.5 111.3 10.6 109.6C11.7 107.8 13.6 106.9 16.1 106.7C18.2 106.6 19.9 107.2 21.1 108.7C22.3 110.2 23 112.3 23.2 115.2L24 127.3L1.1 128.8L0 109.6L4.6 109.3L5.4 121.5L9.6 121.2ZM18.8 120.6L18.6 117C18.5 114.8 17.6 113.7 16 113.8C14.6 113.9 14 115 14.1 117.3L14.3 120.9L18.8 120.6Z" fill="white"/>
<path d="M27.2001 83.2L25.8 90.1L8.80005 86.6L7.70005 92L14.6 93.4C17.4 94 19.5 94.6 20.8 95.1C22.1 95.6 22.9 96.6 23.3 97.8C23.7 99 23.6 100.9 23.1 103.4C22.9 104.2 22.7 105 22.3 106L17.8 105.1L18 104.1C18.2001 103.2 18.1 102.5 17.8 102C17.5 101.5 16.7 101.2 15.6 101L0.800049 97.8L4.80005 78.5L27.2001 83.2Z" fill="white"/>
<path d="M18.2 50L38.5 60.7L35.4 66.6L24.3 60.7L31.4 74.1L28.3 80L8 69.4L11.1 63.5L22.3 69.4L15.1 55.9L18.2 50Z" fill="white"/>
<path d="M41.2999 39C43.6999 37.5 45.9 37.6 47.9 39.5C49.5 41 50.3 42.9 50.2 45.1C50.1 47.3 49 49.6 46.7999 51.9C43.1999 55.9 39.2 56.8 35 54.7L39.2 49.4C40.6 50.2 41.8999 50 43.0999 48.7C43.7999 48 44.0999 47.3 44.0999 46.6C44.0999 45.9 43.7999 45.2 43.0999 44.7C42.4999 44.1 41.8 43.9 40.9 44C40 44.1 39.2999 44.6 38.5999 45.4L37.2999 46.8L34.2999 44L35.2999 42.9C35.9 42.2 36.2 41.6 36.2 40.9C36.2 40.2 35.9 39.6 35.2999 39C34.4 38.2 33.4 38.3 32.4 39.5C31.3 40.7 31.1999 41.8 32.0999 43L27.2999 47.2C25.0999 43.8 25.7 40.1 29.2 36.4C31.1 34.3 33 33 35 32.6C36.9 32.2 38.5 32.6 39.9 33.8C41.5 35.2 41.9 37 41.2999 39Z" fill="white"/>
<path d="M72.3999 31.5L65.6999 35.9L60.0999 32.5C58.7999 31.7 57.8999 31.2 57.3999 31.2C56.8999 31.1 56.3999 31.2 55.8999 31.6L60.8999 39.2L54.9999 43L42.3999 23.9L48.2999 20L53.0999 27.3C53.5999 26.9 53.8999 26.5 53.8999 26C53.9999 25.5 53.7999 24.2 53.2999 22.2C52.9999 20.7 52.7999 19.6 52.9999 18.8C53.0999 18 53.5999 17.1 54.4999 16.2C55.3999 15.3 56.8999 14.1 59.0999 12.7L61.7999 16.7L61.4999 16.9C60.4999 17.6 59.8999 18.3 59.5999 19C59.3999 19.7 59.3999 20.6 59.5999 21.7C59.8999 22.8 59.8999 23.6 59.8999 24.3C59.7999 25 59.4999 25.6 59.0999 26.3C60.0999 26 61.1999 26 62.2999 26.3C63.3999 26.6 64.7999 27.2 66.3999 28.2L72.3999 31.5Z" fill="white"/>
<path d="M69.1001 20.5C67.9001 16.9 68.0001 13.9 69.4001 11.2C70.7001 8.59999 73.2001 6.69999 76.7001 5.49999C80.3001 4.29999 83.4001 4.39999 86.0001 5.69999C88.6001 6.99999 90.5001 9.39999 91.6001 12.9C92.4001 15.4 92.7001 17.7 92.4001 19.6C92.1001 21.5 91.2001 23.2 89.9001 24.6C88.6001 26 86.7001 27.1 84.3001 27.9C81.8001 28.7 79.7001 29 77.8001 28.7C75.9001 28.4 74.2001 27.6 72.7001 26.3C71.2001 25 70.0001 23 69.1001 20.5ZM75.9001 18.3C76.6001 20.5 77.5001 21.9 78.7001 22.6C79.9001 23.3 81.1001 23.4 82.5001 23C83.9001 22.5 84.9001 21.7 85.4001 20.5C85.9001 19.3 85.7001 17.5 84.9001 15C84.2001 12.9 83.3001 11.6 82.2001 10.9C81.1001 10.2 79.8001 10.1 78.4001 10.6C77.0001 11 76.1001 11.9 75.6001 13.1C75.1001 14.3 75.2001 16.1 75.9001 18.3Z" fill="white"/>
</svg>
