<svg width="116" height="20" viewBox="0 0 116 20" fill="none" xmlns="http://www.w3.org/2000/svg">
<path fill-rule="evenodd" clip-rule="evenodd" d="M16 16V20H20V16H16ZM12 12H16V16H12V12ZM8 8V4L20 4V0H4H0V4V20H4V8H8ZM8 8V12H12V8H8ZM24 16H28V20H24V16ZM32 12H28L28 16L32 16L32 12ZM36 8V12L32 12V8L36 8ZM36 8L40 8V20L44 20V4V3.49691e-06L40 2.79753e-06L24 0L24 4L36 4V8ZM52 4H48V0H52V4ZM56 8H52V4H56V8ZM60 12H56V8H60V12ZM60 12H64V0H68V16V20H64H48V16H60V12ZM88 4.00005V4.98931e-05L92 5.00679e-05V4.00005H88ZM84 8.00005V4.00005L88 4.00005V8.00005H84ZM80 12V8.00005H84V12H80ZM80 12H76V4.93685e-05L72 4.91937e-05V16V20H76H92V16H80V12ZM112 20V16H116V20H112ZM108 12V16H112V12H108ZM104 8H108V12H104V8ZM104 8V4L116 4V0H100H96V4V20H100V8H104Z" fill="white"/>
</svg>
