<svg width="152" height="20" viewBox="0 0 152 20" fill="none" xmlns="http://www.w3.org/2000/svg">
<path fill-rule="evenodd" clip-rule="evenodd" d="M4 4H0V0H4V4ZM8 4H4V8H0V12H4V16H0V20H4V16H8V20H12V16H16V20H72V16H76V12H80V8H84V4H88V0H32V4H28V0H24V4H20V0H16V4H12V0H8V4ZM8 8V4H12V8H8ZM8 12V16H12V12H16V16H20V12H24V8H28V4H24V8H20V4H16V8H12V12H8ZM16 8H20V12H16V8ZM8 12H4V8H8V12ZM124 4H128V0H124V4ZM120 8H124V4H120V8ZM116 12V8H120V12H116ZM112 16V12H116V16H112ZM112 16H108V20H112V16ZM100 8H96V4H100V8ZM100 16H96V12H100V16ZM148 4H152V0H148V4ZM144 8H148V4H144V8ZM140 12V8H144V12H140ZM136 16V12H140V16H136ZM136 16H132V20H136V16ZM136 4H140V0H136V4ZM132 8H136V4H132V8ZM128 12V8H132V12H128ZM124 16V12H128V16H124ZM124 16H120V20H124V16ZM152 20H148V16H152V20Z" fill="white"/>
</svg>
