<svg width="264" height="116" viewBox="0 0 264 116" fill="none" xmlns="http://www.w3.org/2000/svg">
<path fill-rule="evenodd" clip-rule="evenodd" d="M0 72V76H20V72H8V68H4L4 72L0 72ZM12 64H8V68H12V64ZM12 60H16V64H12V60ZM8 56V60H12V56H8ZM44 52H8V56H4L4 52L0 52V48L48 48V52V56H44V60H40V64H36V60H40V56H44V52Z" fill="white"/>
<path fill-rule="evenodd" clip-rule="evenodd" d="M264 72V76H244V72H256V68H260L260 72L264 72ZM252 64H256V68H252V64ZM252 60H248V64H252V60ZM256 56V60H252V56H256ZM220 52H256V56H260L260 52L264 52V48L216 48V52V56H220V60H224V64H228V60H224V56H220V52Z" fill="white"/>
<rect x="40" y="64" width="184" height="52" fill="white"/>
<path fill-rule="evenodd" clip-rule="evenodd" d="M32 116V112L36 112V108H24V104H28V100H16V96H20V92H8V88H12L12 84H16V80H20V76H24V72H28V68H32V64H40V68V72H36V76H40V80V84V88H36V92H40V96V100V104H36V108H40V112V116H32ZM32 96V100H28V96H32ZM32 96V92H36V96H32ZM32 80H36V76H32V80ZM28 84H32V80H28V84ZM24 88H28V84H24V88ZM24 88H20V92H24V88Z" fill="white"/>
<path fill-rule="evenodd" clip-rule="evenodd" d="M232 116V112L228 112V108H240V104H236V100H248V96H244V92H256V88H252L252 84H248V80H244V76H240V72H236V68H232V64H224V68V72H228V76H224V80V84V88H228V92H224V96V100V104H228V108H224V112V116H232ZM232 96V100H236V96H232ZM232 96V92H228V96H232ZM232 80H228V76H232V80ZM236 84H232V80H236V84ZM240 88H236V84H240V88ZM240 88H244V92H240V88Z" fill="white"/>
<path d="M82.5234 99V81.8203H73.6758C72.0352 81.8203 70.7812 81.9609 69.9141 82.2422C69.0469 82.5234 68.3477 83.0469 67.8164 83.8125C67.2852 84.5703 67.0195 85.4961 67.0195 86.5898C67.0195 87.543 67.2227 88.3672 67.6289 89.0625C68.0352 89.75 68.5938 90.3086 69.3047 90.7383C69.7578 91.0117 70.3789 91.2383 71.168 91.418C70.5352 91.6289 70.0742 91.8398 69.7852 92.0508C69.5898 92.1914 69.3047 92.4922 68.9297 92.9531C68.5625 93.4141 68.3164 93.7695 68.1914 94.0195L65.625 99H71.625L74.4609 93.75C74.8203 93.0703 75.1406 92.6289 75.4219 92.4258C75.8047 92.1602 76.2383 92.0273 76.7227 92.0273H77.1914V99H82.5234ZM77.1914 88.7812H74.9531C74.7109 88.7812 74.2422 88.7031 73.5469 88.5469C73.1953 88.4766 72.9062 88.2969 72.6797 88.0078C72.4609 87.7188 72.3516 87.3867 72.3516 87.0117C72.3516 86.457 72.5273 86.0312 72.8789 85.7344C73.2305 85.4375 73.8906 85.2891 74.8594 85.2891H77.1914V88.7812ZM105.516 91.9805L110.168 93.3867C109.855 94.6914 109.363 95.7812 108.691 96.6562C108.02 97.5312 107.184 98.1914 106.184 98.6367C105.191 99.082 103.926 99.3047 102.387 99.3047C100.52 99.3047 98.9922 99.0352 97.8047 98.4961C96.625 97.9492 95.6055 96.9922 94.7461 95.625C93.8867 94.2578 93.457 92.5078 93.457 90.375C93.457 87.5312 94.2109 85.3477 95.7188 83.8242C97.2344 82.293 99.375 81.5273 102.141 81.5273C104.305 81.5273 106.004 81.9648 107.238 82.8398C108.48 83.7148 109.402 85.0586 110.004 86.8711L105.316 87.9141C105.152 87.3906 104.98 87.0078 104.801 86.7656C104.504 86.3594 104.141 86.0469 103.711 85.8281C103.281 85.6094 102.801 85.5 102.27 85.5C101.066 85.5 100.145 85.9844 99.5039 86.9531C99.0195 87.6719 98.7773 88.8008 98.7773 90.3398C98.7773 92.2461 99.0664 93.5547 99.6445 94.2656C100.223 94.9688 101.035 95.3203 102.082 95.3203C103.098 95.3203 103.863 95.0352 104.379 94.4648C104.902 93.8945 105.281 93.0664 105.516 91.9805ZM111.551 81.8203H127.688V86.0625H122.273V99H116.965V86.0625H111.551V81.8203ZM130.078 81.8203H138.902C140.824 81.8203 142.262 82.2773 143.215 83.1914C144.176 84.1055 144.656 85.4062 144.656 87.0938C144.656 88.8281 144.133 90.1836 143.086 91.1602C142.047 92.1367 140.457 92.625 138.316 92.625H135.41V99H130.078V81.8203ZM135.41 89.1445H136.711C137.734 89.1445 138.453 88.9688 138.867 88.6172C139.281 88.2578 139.488 87.8008 139.488 87.2461C139.488 86.707 139.309 86.25 138.949 85.875C138.59 85.5 137.914 85.3125 136.922 85.3125H135.41V89.1445ZM158.016 96.1641H151.969L151.137 99H145.711L152.168 81.8203H157.957L164.414 99H158.859L158.016 96.1641ZM156.902 92.4492L155.004 86.2734L153.117 92.4492H156.902ZM190.266 99H184.289L182.227 94.5586C181.734 93.5117 181.352 92.8594 181.078 92.6016C180.805 92.3359 180.426 92.2031 179.941 92.2031V99H174.645V92.2031C174.152 92.2031 173.77 92.3359 173.496 92.6016C173.223 92.8594 172.844 93.5117 172.359 94.5586L170.297 99H164.32L166.652 94.3008C167.293 92.9961 167.898 92.0391 168.469 91.4297C169.047 90.8125 169.711 90.3828 170.461 90.1406C169.906 89.9141 169.465 89.6133 169.137 89.2383C168.809 88.8555 168.504 88.2812 168.223 87.5156C167.949 86.7422 167.594 86.1836 167.156 85.8398C166.719 85.4961 166.047 85.3242 165.141 85.3242H164.871V81.6914C166.824 81.6914 168.258 81.793 169.172 81.9961C170.086 82.1992 170.742 82.5352 171.141 83.0039C171.547 83.4648 171.953 84.2305 172.359 85.3008C172.898 86.7461 173.297 87.6211 173.555 87.9258C173.812 88.2305 174.176 88.3945 174.645 88.418V81.8203H179.941V88.418C180.402 88.3945 180.762 88.2305 181.02 87.9258C181.277 87.6211 181.68 86.7461 182.227 85.3008C182.625 84.2305 183.027 83.4648 183.434 83.0039C183.84 82.5352 184.5 82.1992 185.414 81.9961C186.328 81.793 187.762 81.6914 189.715 81.6914V85.3242H189.445C188.539 85.3242 187.867 85.4961 187.43 85.8398C186.992 86.1836 186.633 86.7422 186.352 87.5156C186.07 88.2812 185.766 88.8555 185.438 89.2383C185.117 89.6133 184.68 89.9141 184.125 90.1406C184.883 90.3906 185.547 90.8242 186.117 91.4414C186.688 92.0508 187.293 93.0039 187.934 94.3008L190.266 99ZM191.883 81.8203H196.98V85.7344L195.996 93.5977H192.844L191.883 85.7344V81.8203ZM192.059 94.793H196.816V99H192.059V94.793Z" fill="#212930"/>
<rect x="126" y="16" width="24" height="12" fill="#FDCB9B"/>
<rect x="150" y="4" width="4" height="8" fill="#EA9E0A"/>
<rect x="126" y="32" width="20" height="4" fill="#FDCB9B"/>
<rect x="130" y="28" width="16" height="4" fill="#DE997C"/>
<rect x="126" y="28" width="4" height="4" fill="#FDCB9B"/>
<rect x="122" y="16" width="4" height="4" fill="#EA9E0A"/>
<rect x="118" y="24" width="8" height="4" fill="#EA9E0A"/>
<rect x="138" y="16" width="4" height="4" fill="black"/>
<rect x="146" y="16" width="4" height="4" fill="black"/>
<rect x="134" width="16" height="4" fill="#FFDD19"/>
<rect x="118" y="12" width="4" height="4" fill="#FFDD19"/>
<rect x="118" y="16" width="4" height="4" fill="#FFDD19"/>
<rect x="122" y="8" width="4" height="8" fill="#FFDD19"/>
<rect x="126" y="4" width="4" height="8" fill="#FFDD19"/>
<rect x="130" y="4" width="20" height="8" fill="#FFDD19"/>
<rect x="126" y="12" width="24" height="4" fill="#EA9E0A"/>
<rect x="146" y="8" width="4" height="4" fill="#EA9E0A"/>
<rect x="118" y="20" width="4" height="4" fill="#EA9E0A"/>
<rect x="122" y="28" width="4" height="4" fill="#EA9E0A"/>
<rect x="122" y="20" width="4" height="4" fill="#FDCB9B"/>
<rect x="134" y="44" width="4" height="4" fill="#EA9E0A"/>
<rect x="150" y="44" width="4" height="4" fill="#EA9E0A"/>
<rect x="150" y="56" width="4" height="4" fill="#EA9E0A"/>
<rect x="150" y="48" width="4" height="8" fill="#FFDD19"/>
<rect x="130" y="60" width="4" height="4" fill="#EA9E0A"/>
<rect x="134" y="56" width="4" height="4" fill="#EA9E0A"/>
<rect x="134" y="60" width="8" height="4" fill="#FFDD19"/>
<rect x="138" y="60" width="16" height="4" transform="rotate(-90 138 60)" fill="#FFDD19"/>
<rect x="142" y="32" width="4" height="8" fill="#FFDD19"/>
<rect x="154" y="44" width="4" height="16" fill="#FFDD19"/>
<rect x="150" y="60" width="4" height="4" fill="#FFDD19"/>
<rect x="146" y="44" width="4" height="20" fill="#FFDD19"/>
<rect x="142" y="44" width="4" height="20" fill="#FFDD19"/>
<rect x="146" y="40" width="8" height="4" fill="#FFDD19"/>
<rect x="130" y="44" width="4" height="16" fill="#FFDD19"/>
<rect x="134" y="48" width="4" height="8" fill="#FFDD19"/>
<rect x="154" y="40" width="4" height="4" fill="#EA9E0A"/>
<rect x="138" y="32" width="4" height="4" fill="white"/>
<rect x="130" y="36" width="4" height="4" fill="white"/>
<rect x="126" y="40" width="4" height="20" fill="white"/>
<rect x="134" y="36" width="8" height="4" fill="#FFDD19"/>
<rect x="130" y="40" width="16" height="4" fill="#FFDD19"/>
<rect x="146" y="32" width="8" height="4" fill="#EA9E0A"/>
<rect x="150" y="36" width="8" height="4" fill="#EA9E0A"/>
<rect x="146" y="36" width="4" height="4" fill="#FFDD19"/>
<rect x="158" y="40" width="4" height="20" fill="#EA9E0A"/>
<rect x="154" y="60" width="4" height="4" fill="#EA9E0A"/>
<rect x="106" y="44" width="4" height="4" fill="#FFDD19"/>
<rect x="114" y="48" width="4" height="4" fill="#EA9E0A"/>
<rect x="110" y="52" width="4" height="4" fill="#EA9E0A"/>
<rect x="106" y="52" width="4" height="4" fill="#FDCB9B"/>
<rect x="102" y="48" width="4" height="4" fill="#FFDD19"/>
<rect x="110" y="56" width="4" height="4" fill="#FFDD19"/>
<rect x="102" y="44" width="4" height="4" fill="white"/>
<rect x="106" y="56" width="4" height="4" fill="white"/>
<rect x="106" y="48" width="8" height="4" fill="#FDCB9B"/>
<rect x="110" y="44" width="8" height="4" fill="#EA9E0A"/>
<rect x="110" y="16" width="4" height="8" fill="#858585"/>
<rect x="110" y="32" width="4" height="12" fill="#858585"/>
<rect x="106" width="4" height="12" fill="white"/>
<rect x="106" y="20" width="4" height="24" fill="white"/>
<rect x="106" y="12" width="4" height="8" fill="#D6D6D6"/>
<rect x="110" y="24" width="4" height="8" fill="#D6D6D6"/>
<rect x="110" y="4" width="4" height="12" fill="#D6D6D6"/>
<rect x="130" y="32" width="8" height="4" fill="#858585"/>
<rect x="122" y="40" width="4" height="4" fill="#858585"/>
<rect x="114" y="52" width="4" height="4" fill="#858585"/>
<rect x="122" y="44" width="4" height="4" fill="#858585"/>
<rect x="118" y="60" width="4" height="4" fill="#858585"/>
<rect x="114" y="56" width="4" height="8" fill="#D6D6D6"/>
<rect x="118" y="32" width="4" height="4" fill="white"/>
<rect x="126" y="32" width="4" height="4" fill="#D6D6D6"/>
<rect x="118" y="36" width="4" height="4" fill="#D6D6D6"/>
<rect x="114" y="36" width="4" height="4" fill="white"/>
<rect x="114" y="40" width="4" height="4" fill="#D6D6D6"/>
<rect x="122" y="36" width="4" height="4" fill="#D6D6D6"/>
<rect x="118" y="44" width="4" height="4" fill="#D6D6D6"/>
<rect x="118" y="48" width="4" height="4" fill="#858585"/>
<rect x="118" y="40" width="4" height="4" fill="#D6D6D6"/>
<rect x="122" y="48" width="4" height="4" fill="#D6D6D6"/>
<rect x="118" y="52" width="4" height="8" fill="#D6D6D6"/>
<rect x="122" y="52" width="4" height="8" fill="#858585"/>
<rect x="122" y="60" width="4" height="4" fill="#D6D6D6"/>
<rect x="126" y="60" width="4" height="4" fill="#858585"/>
<rect x="126" y="36" width="4" height="4" fill="#858585"/>
<rect x="122" y="32" width="4" height="4" fill="#858585"/>
</svg>
