<svg width="264" height="116" viewBox="0 0 264 116" fill="none" xmlns="http://www.w3.org/2000/svg">
<rect x="126" y="16" width="24" height="12" fill="#FDCB9B"/>
<rect x="150" y="4" width="4" height="8" fill="#B45E2D"/>
<rect x="126" y="32" width="20" height="4" fill="#FDCB9B"/>
<rect x="130" y="28" width="16" height="4" fill="#DE997C"/>
<rect x="110" y="36" width="8" height="4" fill="#FDCB9B"/>
<rect x="106" y="52" width="4" height="4" fill="#FDCB9B"/>
<rect x="154" y="40" width="4" height="4" fill="#DE997C"/>
<rect x="154" y="52" width="4" height="4" fill="#DE997C"/>
<rect x="146" y="48" width="4" height="4" fill="#DE997C"/>
<rect x="138" y="52" width="4" height="8" fill="#DE997C"/>
<rect x="126" y="52" width="4" height="8" fill="#DE997C"/>
<rect x="142" y="56" width="12" height="4" fill="#DE997C"/>
<rect x="110" y="56" width="16" height="4" fill="#DE997C"/>
<rect x="154" y="44" width="4" height="8" fill="#FDCB9B"/>
<rect x="150" y="56" width="8" height="4" transform="rotate(-90 150 56)" fill="#FDCB9B"/>
<rect x="142" y="56" width="4" height="8" transform="rotate(-90 142 56)" fill="#FDCB9B"/>
<rect x="110" y="56" width="4" height="16" transform="rotate(-90 110 56)" fill="#FDCB9B"/>
<rect x="158" y="44" width="4" height="8" fill="#DE997C"/>
<rect x="118" y="36" width="4" height="8" fill="#DE997C"/>
<rect x="150" y="36" width="4" height="12" fill="#DE997C"/>
<rect x="114" y="44" width="4" height="8" fill="#DE997C"/>
<rect x="110" y="44" width="4" height="8" fill="#FDCB9B"/>
<rect x="106" y="44" width="4" height="8" fill="#FDCB9B"/>
<rect x="102" y="44" width="4" height="8" fill="#FDCB9B"/>
<rect x="106" y="40" width="12" height="4" fill="#FDCB9B"/>
<rect x="122" y="32" width="4" height="12" fill="#3F6935"/>
<rect x="118" y="44" width="4" height="8" fill="#3F6935"/>
<rect x="126" y="52" width="12" height="20" transform="rotate(-90 126 52)" fill="#4C973C"/>
<rect x="130" y="56" width="4" height="8" transform="rotate(-90 130 56)" fill="#4C973C"/>
<rect x="130" y="60" width="4" height="8" transform="rotate(-90 130 60)" fill="#3F6935"/>
<rect x="126" y="28" width="4" height="4" fill="#FDCB9B"/>
<rect x="126" y="36" width="20" height="4" fill="#3F6935"/>
<rect x="146" y="32" width="4" height="16" fill="#3F6935"/>
<rect x="122" y="44" width="4" height="8" fill="#4C973C"/>
<rect x="122" y="16" width="4" height="4" fill="#B45E2D"/>
<rect x="118" y="24" width="8" height="4" fill="#B45E2D"/>
<rect x="134" y="16" width="4" height="4" fill="black"/>
<rect x="142" y="16" width="4" height="4" fill="black"/>
<rect x="130" width="20" height="4" fill="#E28450"/>
<rect x="118" y="8" width="4" height="4" fill="#E28450"/>
<rect x="118" y="16" width="4" height="4" fill="#E28450"/>
<rect x="122" y="4" width="4" height="12" fill="#E28450"/>
<rect x="126" y="4" width="24" height="8" fill="#E28450"/>
<rect x="126" y="12" width="24" height="4" fill="#1989FA"/>
<rect x="146" y="8" width="4" height="4" fill="#1989FA"/>
<rect x="114" y="12" width="8" height="4" fill="#1989FA"/>
<rect x="138" y="8" width="4" height="4" fill="#1989FA"/>
<rect x="110" y="8" width="4" height="4" fill="#1989FA"/>
<rect x="102" y="16" width="4" height="4" fill="#1989FA"/>
<rect x="114" y="16" width="4" height="4" fill="#1989FA"/>
<rect x="106" y="20" width="8" height="4" fill="#1989FA"/>
<rect x="102" y="4" width="8" height="4" fill="#1989FA"/>
<rect x="118" y="20" width="4" height="4" fill="#B45E2D"/>
<rect x="122" y="28" width="4" height="4" fill="#B45E2D"/>
<rect x="122" y="20" width="4" height="4" fill="#FDCB9B"/>
<rect x="118" y="60" width="16" height="4" fill="#B45E2D"/>
<rect x="134" y="60" width="8" height="4" fill="#FCE758"/>
<rect x="142" y="60" width="8" height="4" fill="#B45E2D"/>
<path fill-rule="evenodd" clip-rule="evenodd" d="M0 72V76H20V72H8V68H4L4 72L0 72ZM12 64H8V68H12V64ZM12 60H16V64H12V60ZM8 56V60H12V56H8ZM44 52H8V56H4L4 52L0 52V48L48 48V52V56H44V60H40V64H36V60H40V56H44V52Z" fill="#1989FA"/>
<path fill-rule="evenodd" clip-rule="evenodd" d="M264 72V76H244V72H256V68H260L260 72L264 72ZM252 64H256V68H252V64ZM252 60H248V64H252V60ZM256 56V60H252V56H256ZM220 52H256V56H260L260 52L264 52V48L216 48V52V56H220V60H224V64H228V60H224V56H220V52Z" fill="#1989FA"/>
<rect x="40" y="64" width="184" height="52" fill="#1989FA"/>
<path fill-rule="evenodd" clip-rule="evenodd" d="M32 116V112L36 112V108H24V104H28V100H16V96H20V92H8V88H12L12 84H16V80H20V76H24V72H28V68H32V64H40V68V72H36V76H40V80V84V88H36V92H40V96V100V104H36V108H40V112V116H32ZM32 96V100H28V96H32ZM32 96V92H36V96H32ZM32 80H36V76H32V80ZM28 84H32V80H28V84ZM24 88H28V84H24V88ZM24 88H20V92H24V88Z" fill="#1989FA"/>
<path fill-rule="evenodd" clip-rule="evenodd" d="M232 116V112L228 112V108H240V104H236V100H248V96H244V92H256V88H252L252 84H248V80H244V76H240V72H236V68H232V64H224V68V72H228V76H224V80V84V88H228V92H224V96V100V104H228V108H224V112V116H232ZM232 96V100H236V96H232ZM232 96V92H228V96H232ZM232 80H228V76H232V80ZM236 84H232V80H236V84ZM240 88H236V84H240V88ZM240 88H244V92H240V88Z" fill="#1989FA"/>
<path d="M86.2383 99V81.8203H77.3906C75.75 81.8203 74.4961 81.9609 73.6289 82.2422C72.7617 82.5234 72.0625 83.0469 71.5312 83.8125C71 84.5703 70.7344 85.4961 70.7344 86.5898C70.7344 87.543 70.9375 88.3672 71.3438 89.0625C71.75 89.75 72.3086 90.3086 73.0195 90.7383C73.4727 91.0117 74.0938 91.2383 74.8828 91.418C74.25 91.6289 73.7891 91.8398 73.5 92.0508C73.3047 92.1914 73.0195 92.4922 72.6445 92.9531C72.2773 93.4141 72.0312 93.7695 71.9062 94.0195L69.3398 99H75.3398L78.1758 93.75C78.5352 93.0703 78.8555 92.6289 79.1367 92.4258C79.5195 92.1602 79.9531 92.0273 80.4375 92.0273H80.9062V99H86.2383ZM80.9062 88.7812H78.668C78.4258 88.7812 77.957 88.7031 77.2617 88.5469C76.9102 88.4766 76.6211 88.2969 76.3945 88.0078C76.1758 87.7188 76.0664 87.3867 76.0664 87.0117C76.0664 86.457 76.2422 86.0312 76.5938 85.7344C76.9453 85.4375 77.6055 85.2891 78.5742 85.2891H80.9062V88.7812ZM111.398 86.0391H103.09V99H97.793V81.8203H111.398V86.0391ZM113.789 81.8203H128.016V85.4883H119.109V88.2188H127.371V91.7227H119.109V95.1094H128.273V99H113.789V81.8203ZM131.121 81.8203H139.945C141.867 81.8203 143.305 82.2773 144.258 83.1914C145.219 84.1055 145.699 85.4062 145.699 87.0938C145.699 88.8281 145.176 90.1836 144.129 91.1602C143.09 92.1367 141.5 92.625 139.359 92.625H136.453V99H131.121V81.8203ZM136.453 89.1445H137.754C138.777 89.1445 139.496 88.9688 139.91 88.6172C140.324 88.2578 140.531 87.8008 140.531 87.2461C140.531 86.707 140.352 86.25 139.992 85.875C139.633 85.5 138.957 85.3125 137.965 85.3125H136.453V89.1445ZM147.82 90.4219C147.82 87.6172 148.602 85.4336 150.164 83.8711C151.727 82.3086 153.902 81.5273 156.691 81.5273C159.551 81.5273 161.754 82.2969 163.301 83.8359C164.848 85.3672 165.621 87.5156 165.621 90.2812C165.621 92.2891 165.281 93.9375 164.602 95.2266C163.93 96.5078 162.953 97.5078 161.672 98.2266C160.398 98.9375 158.809 99.293 156.902 99.293C154.965 99.293 153.359 98.9844 152.086 98.3672C150.82 97.75 149.793 96.7734 149.004 95.4375C148.215 94.1016 147.82 92.4297 147.82 90.4219ZM153.129 90.4453C153.129 92.1797 153.449 93.4258 154.09 94.1836C154.738 94.9414 155.617 95.3203 156.727 95.3203C157.867 95.3203 158.75 94.9492 159.375 94.207C160 93.4648 160.312 92.1328 160.312 90.2109C160.312 88.5938 159.984 87.4141 159.328 86.6719C158.68 85.9219 157.797 85.5469 156.68 85.5469C155.609 85.5469 154.75 85.9258 154.102 86.6836C153.453 87.4414 153.129 88.6953 153.129 90.4453ZM184.922 81.8203V99H179.93V89.5664L173.496 99H168.492V81.8203H173.496V91.3242L179.965 81.8203H184.922ZM181.031 77.5898C180.867 78.5742 180.391 79.3711 179.602 79.9805C178.82 80.582 177.887 80.8828 176.801 80.8828C175.723 80.8828 174.789 80.5781 174 79.9688C173.211 79.3594 172.738 78.5664 172.582 77.5898H174.621C174.949 78.5664 175.66 79.0547 176.754 79.0547C177.926 79.0547 178.672 78.5664 178.992 77.5898H181.031ZM188.168 81.8203H193.266V85.7344L192.281 93.5977H189.129L188.168 85.7344V81.8203ZM188.344 94.793H193.102V99H188.344V94.793Z" fill="white"/>
</svg>
