<svg width="264" height="116" viewBox="0 0 264 116" fill="none" xmlns="http://www.w3.org/2000/svg">
<path fill-rule="evenodd" clip-rule="evenodd" d="M0 72V76H20V72H8V68H4L4 72L0 72ZM12 64H8V68H12V64ZM12 60H16V64H12V60ZM8 56V60H12V56H8ZM44 52H8V56H4L4 52L0 52V48L48 48V52V56H44V60H40V64H36V60H40V56H44V52Z" fill="#F3533F"/>
<path fill-rule="evenodd" clip-rule="evenodd" d="M264 72V76H244V72H256V68H260L260 72L264 72ZM252 64H256V68H252V64ZM252 60H248V64H252V60ZM256 56V60H252V56H256ZM220 52H256V56H260L260 52L264 52V48L216 48V52V56H220V60H224V64H228V60H224V56H220V52Z" fill="#F3533F"/>
<rect x="40" y="64" width="184" height="52" fill="#F3533F"/>
<path fill-rule="evenodd" clip-rule="evenodd" d="M32 116V112L36 112V108H24V104H28V100H16V96H20V92H8V88H12L12 84H16V80H20V76H24V72H28V68H32V64H40V68V72H36V76H40V80V84V88H36V92H40V96V100V104H36V108H40V112V116H32ZM32 96V100H28V96H32ZM32 96V92H36V96H32ZM32 80H36V76H32V80ZM28 84H32V80H28V84ZM24 88H28V84H24V88ZM24 88H20V92H24V88Z" fill="#F3533F"/>
<path fill-rule="evenodd" clip-rule="evenodd" d="M232 116V112L228 112V108H240V104H236V100H248V96H244V92H256V88H252L252 84H248V80H244V76H240V72H236V68H232V64H224V68V72H228V76H224V80V84V88H228V92H224V96V100V104H228V108H224V112V116H232ZM232 96V100H236V96H232ZM232 96V92H228V96H232ZM232 80H228V76H232V80ZM236 84H232V80H236V84ZM240 88H236V84H240V88ZM240 88H244V92H240V88Z" fill="#F3533F"/>
<path d="M74.9414 99V81.8203H66.0938C64.4531 81.8203 63.1992 81.9609 62.332 82.2422C61.4648 82.5234 60.7656 83.0469 60.2344 83.8125C59.7031 84.5703 59.4375 85.4961 59.4375 86.5898C59.4375 87.543 59.6406 88.3672 60.0469 89.0625C60.4531 89.75 61.0117 90.3086 61.7227 90.7383C62.1758 91.0117 62.7969 91.2383 63.5859 91.418C62.9531 91.6289 62.4922 91.8398 62.2031 92.0508C62.0078 92.1914 61.7227 92.4922 61.3477 92.9531C60.9805 93.4141 60.7344 93.7695 60.6094 94.0195L58.043 99H64.043L66.8789 93.75C67.2383 93.0703 67.5586 92.6289 67.8398 92.4258C68.2227 92.1602 68.6562 92.0273 69.1406 92.0273H69.6094V99H74.9414ZM69.6094 88.7812H67.3711C67.1289 88.7812 66.6602 88.7031 65.9648 88.5469C65.6133 88.4766 65.3242 88.2969 65.0977 88.0078C64.8789 87.7188 64.7695 87.3867 64.7695 87.0117C64.7695 86.457 64.9453 86.0312 65.2969 85.7344C65.6484 85.4375 66.3086 85.2891 67.2773 85.2891H69.6094V88.7812ZM97.2656 89.6602C99.3281 90.2148 100.359 91.5117 100.359 93.5508C100.359 95.2305 99.7109 96.6094 98.4141 97.6875C97.125 98.7578 95.3008 99.293 92.9414 99.293C88.9102 99.293 86.4062 97.6016 85.4297 94.2188L90.4453 93.8438C90.7266 95.0391 91.5273 95.6367 92.8477 95.6367C93.582 95.6367 94.1367 95.4531 94.5117 95.0859C94.8945 94.7188 95.0859 94.207 95.0859 93.5508C95.0859 92.918 94.8477 92.4062 94.3711 92.0156C93.8945 91.6172 93.2422 91.418 92.4141 91.418H90.9727V88.3477H92.1094C92.7891 88.3477 93.3203 88.1719 93.7031 87.8203C94.0938 87.4609 94.2891 86.9648 94.2891 86.332C94.2891 85.4023 93.707 84.9375 92.543 84.9375C91.3398 84.9375 90.6406 85.4727 90.4453 86.543L85.6992 85.9922C86.4727 83.0156 88.7852 81.5273 92.6367 81.5273C94.7695 81.5273 96.4414 81.9414 97.6523 82.7695C98.8633 83.5977 99.4688 84.7109 99.4688 86.1094C99.4688 87.7969 98.7344 88.9805 97.2656 89.6602ZM118.805 99H113.496V86.0391H109.348V91.3242C109.348 93.4961 109.23 95.0938 108.996 96.1172C108.77 97.1328 108.23 97.8789 107.379 98.3555C106.535 98.832 105.168 99.0703 103.277 99.0703C102.699 99.0703 102.035 99.0078 101.285 98.8828V95.4023H102.082C102.801 95.4023 103.309 95.2461 103.605 94.9336C103.902 94.6133 104.051 94.0312 104.051 93.1875V81.8203H118.805V99ZM121.664 90.4219C121.664 87.6172 122.445 85.4336 124.008 83.8711C125.57 82.3086 127.746 81.5273 130.535 81.5273C133.395 81.5273 135.598 82.2969 137.145 83.8359C138.691 85.3672 139.465 87.5156 139.465 90.2812C139.465 92.2891 139.125 93.9375 138.445 95.2266C137.773 96.5078 136.797 97.5078 135.516 98.2266C134.242 98.9375 132.652 99.293 130.746 99.293C128.809 99.293 127.203 98.9844 125.93 98.3672C124.664 97.75 123.637 96.7734 122.848 95.4375C122.059 94.1016 121.664 92.4297 121.664 90.4219ZM126.973 90.4453C126.973 92.1797 127.293 93.4258 127.934 94.1836C128.582 94.9414 129.461 95.3203 130.57 95.3203C131.711 95.3203 132.594 94.9492 133.219 94.207C133.844 93.4648 134.156 92.1328 134.156 90.2109C134.156 88.5938 133.828 87.4141 133.172 86.6719C132.523 85.9219 131.641 85.5469 130.523 85.5469C129.453 85.5469 128.594 85.9258 127.945 86.6836C127.297 87.4414 126.973 88.6953 126.973 90.4453ZM160.348 102.738H156.07V99H145.102V102.738H140.836V95.0391H142.605C143.598 92.2656 144.094 89.1367 144.094 85.6523V81.8203H158.496V95.0391H160.348V102.738ZM153.188 95.0391V86.0391H148.922V86.2617C148.922 88.6367 148.52 91.5625 147.715 95.0391H153.188ZM162.422 81.8203H176.648V85.4883H167.742V88.2188H176.004V91.7227H167.742V95.1094H176.906V99H162.422V81.8203ZM196.219 81.8203V99H191.227V89.5664L184.793 99H179.789V81.8203H184.793V91.3242L191.262 81.8203H196.219ZM192.328 77.5898C192.164 78.5742 191.688 79.3711 190.898 79.9805C190.117 80.582 189.184 80.8828 188.098 80.8828C187.02 80.8828 186.086 80.5781 185.297 79.9688C184.508 79.3594 184.035 78.5664 183.879 77.5898H185.918C186.246 78.5664 186.957 79.0547 188.051 79.0547C189.223 79.0547 189.969 78.5664 190.289 77.5898H192.328ZM199.465 81.8203H204.562V85.7344L203.578 93.5977H200.426L199.465 85.7344V81.8203ZM199.641 94.793H204.398V99H199.641V94.793Z" fill="white"/>
<rect width="12" height="16" transform="matrix(-1 0 0 1 146 16)" fill="#C7C7C7"/>
<rect width="16" height="8" transform="matrix(-1 0 0 1 154 0)" fill="#C7C7C7"/>
<rect width="4" height="4" transform="matrix(-1 0 0 1 138 4)" fill="#C7C7C7"/>
<rect width="4" height="4" transform="matrix(-1 0 0 1 158 4)" fill="#7A7A7A"/>
<rect width="4" height="4" transform="matrix(-1 0 0 1 154 8)" fill="#7A7A7A"/>
<rect width="4" height="4" transform="matrix(-1 0 0 1 158 8)" fill="#C7C7C7"/>
<rect width="4" height="4" transform="matrix(-1 0 0 1 150 8)" fill="#C7C7C7"/>
<rect width="4" height="4" transform="matrix(-1 0 0 1 162 20)" fill="#C7C7C7"/>
<rect width="4" height="4" transform="matrix(-1 0 0 1 158 24)" fill="#C7C7C7"/>
<rect width="4" height="4" transform="matrix(-1 0 0 1 154 24)" fill="#C7C7C7"/>
<rect width="4" height="4" transform="matrix(-1 0 0 1 150 36)" fill="#C7C7C7"/>
<rect width="12" height="4" transform="matrix(4.37114e-08 1 1 -4.37114e-08 154 48)" fill="#C7C7C7"/>
<rect width="24" height="4" transform="matrix(4.37114e-08 1 1 -4.37114e-08 150 40)" fill="#C7C7C7"/>
<rect width="16" height="4" transform="matrix(4.37114e-08 1 1 -4.37114e-08 146 48)" fill="#C7C7C7"/>
<rect width="12" height="4" transform="matrix(4.37114e-08 1 1 -4.37114e-08 142 52)" fill="#C7C7C7"/>
<rect width="4" height="4" transform="matrix(4.37114e-08 1 1 -4.37114e-08 138 60)" fill="#C7C7C7"/>
<rect width="8" height="4" transform="matrix(-1 0 0 1 150 40)" fill="#C7C7C7"/>
<rect width="4" height="8" transform="matrix(-1 0 0 1 142 44)" fill="#C7C7C7"/>
<rect width="4" height="4" transform="matrix(-1 0 0 1 138 52)" fill="#C7C7C7"/>
<rect width="8" height="4" transform="matrix(-1 0 0 1 130 52)" fill="#C7C7C7"/>
<rect width="8" height="4" transform="matrix(-1 0 0 1 126 48)" fill="#C7C7C7"/>
<rect width="8" height="4" transform="matrix(-1 0 0 1 134 56)" fill="#C7C7C7"/>
<rect width="8" height="4" transform="matrix(-1 0 0 1 154 20)" fill="#C7C7C7"/>
<rect width="4" height="4" transform="matrix(-1 0 0 1 150 24)" fill="#C7C7C7"/>
<rect width="4" height="4" transform="matrix(-1 0 0 1 150 16)" fill="#C7C7C7"/>
<rect width="12" height="4" transform="matrix(-1 0 0 1 150 32)" fill="#7A7A7A"/>
<rect width="12" height="4" transform="matrix(-1 0 0 1 146 8)" fill="white"/>
<rect width="4" height="4" transform="matrix(-1 0 0 1 134 8)" fill="#C7C7C7"/>
<rect width="4" height="4" transform="matrix(-1 0 0 1 134 12)" fill="white"/>
<rect width="8" height="8" transform="matrix(-1 0 0 1 158 12)" fill="#C7C7C7"/>
<rect width="8" height="4" transform="matrix(-1 0 0 1 142 24)" fill="white"/>
<rect width="8" height="4" transform="matrix(-1 0 0 1 146 36)" fill="white"/>
<rect width="4" height="4" transform="matrix(-1 0 0 1 142 40)" fill="white"/>
<rect width="4" height="8" transform="matrix(-1 0 0 1 138 44)" fill="white"/>
<rect width="4" height="4" transform="matrix(-1 0 0 1 134 52)" fill="white"/>
<rect width="4" height="4" transform="matrix(-1 0 0 1 158 20)" fill="#7A7A7A"/>
<rect width="4" height="4" transform="matrix(-1 0 0 1 154 24)" fill="#7A7A7A"/>
<rect width="4" height="4" transform="matrix(-1 0 0 1 154 36)" fill="#7A7A7A"/>
<rect width="4" height="8" transform="matrix(-1 0 0 1 158 40)" fill="#7A7A7A"/>
<rect width="4" height="16" transform="matrix(-1 0 0 1 162 44)" fill="#7A7A7A"/>
<rect width="4" height="4" transform="matrix(-1 0 0 1 158 60)" fill="#7A7A7A"/>
<rect width="4" height="8" transform="matrix(-1 0 0 1 146 44)" fill="#7A7A7A"/>
<rect width="4" height="4" transform="matrix(-1 0 0 1 138 56)" fill="#7A7A7A"/>
<rect width="4" height="4" transform="matrix(-1 0 0 1 126 56)" fill="#7A7A7A"/>
<rect width="4" height="4" transform="matrix(-1 0 0 1 122 52)" fill="#7A7A7A"/>
<rect width="4" height="4" transform="matrix(-1 0 0 1 118 48)" fill="#7A7A7A"/>
<rect width="4" height="4" transform="matrix(-1 0 0 1 114 44)" fill="#7A7A7A"/>
<rect width="8" height="4" transform="matrix(4.37114e-08 -1 -1 -4.37114e-08 110 44)" fill="#7A7A7A"/>
<rect width="12" height="4" transform="matrix(4.37114e-08 -1 -1 -4.37114e-08 122 40)" fill="#7A7A7A"/>
<rect width="4" height="4" transform="matrix(4.37114e-08 -1 -1 -4.37114e-08 126 28)" fill="#C7C7C7"/>
<rect width="4" height="4" transform="matrix(4.37114e-08 -1 -1 -4.37114e-08 114 28)" fill="#7A7A7A"/>
<rect width="4" height="4" transform="matrix(4.37114e-08 -1 -1 -4.37114e-08 122 4)" fill="#F3533F"/>
<rect width="16" height="4" transform="matrix(4.37114e-08 -1 -1 -4.37114e-08 122 20)" fill="#7A7A7A"/>
<rect width="8" height="4" transform="matrix(4.37114e-08 -1 -1 -4.37114e-08 114 40)" fill="#7A7A7A"/>
<rect width="24" height="4" transform="matrix(4.37114e-08 -1 -1 -4.37114e-08 118 36)" fill="#7A7A7A"/>
<rect width="24" height="4" transform="matrix(4.37114e-08 -1 -1 -4.37114e-08 118 32)" fill="#7A7A7A"/>
<rect width="12" height="4" transform="matrix(1 8.74228e-08 8.74228e-08 -1 102 32)" fill="#7A7A7A"/>
<rect width="4" height="4" transform="matrix(4.37114e-08 -1 -1 -4.37114e-08 114 44)" fill="#C7C7C7"/>
<rect width="4" height="4" transform="matrix(4.37114e-08 -1 -1 -4.37114e-08 118 44)" fill="#C7C7C7"/>
<rect width="4" height="4" transform="matrix(4.37114e-08 -1 -1 -4.37114e-08 118 40)" fill="white"/>
<rect width="4" height="4" transform="matrix(4.37114e-08 -1 -1 -4.37114e-08 118 48)" fill="#C7C7C7"/>
<rect width="4" height="4" transform="matrix(4.37114e-08 -1 -1 -4.37114e-08 122 48)" fill="white"/>
<rect width="4" height="4" transform="matrix(-1 0 0 1 150 44)" fill="#7A7A7A"/>
<rect width="12" height="4" transform="matrix(-1 0 0 1 138 60)" fill="#7A7A7A"/>
<rect width="4" height="8" transform="matrix(-1 0 0 1 142 52)" fill="#7A7A7A"/>
<rect width="4" height="12" transform="matrix(-1 0 0 1 162 8)" fill="#7A7A7A"/>
<rect width="4" height="4" transform="matrix(-1 0 0 1 150 28)" fill="#7A7A7A"/>
<rect width="4" height="4" transform="matrix(-1 0 0 1 145 12)" fill="white"/>
<rect width="12" height="4" transform="matrix(-1 0 0 1 146 12)" fill="#C7C7C7"/>
<rect width="4" height="12" transform="matrix(-1 0 0 1 134 16)" fill="#C7C7C7"/>
<rect width="8" height="4" transform="matrix(-1 0 0 1 146 16)" fill="#F3533F"/>
<rect width="4" height="4" transform="matrix(-1 0 0 1 134 16)" fill="#F3533F"/>
<rect width="4" height="4" transform="matrix(-1 0 0 1 150 12)" fill="white"/>
</svg>
