<svg width="168" height="20" viewBox="0 0 168 20" fill="none" xmlns="http://www.w3.org/2000/svg">
<path fill-rule="evenodd" clip-rule="evenodd" d="M68 20H72V16H76V12H80V8H76V4H72V2.25704e-06L68 0V4L72 4V8L76 8V12L72 12V16H68V20ZM124 20H128V16H132V12H136V8H132V4H128V2.25704e-06L124 0V4L128 4V8L132 8V12L128 12V16H124V20ZM160 20H156V16H160V20ZM164 12V16H160V12L164 12ZM164 8H168V12H164V8ZM160 4H164V8L160 8V4ZM160 4V0H156V4L160 4ZM12 20H16V16H20V12H24L24 8H20V4H16V4.16439e-06L12 3.8147e-06L12 4L16 4V8L20 8L20 12L16 12V16H12V20ZM60 20H56V16H60V20ZM64 12V16H60V12L64 12ZM64 8H68V12H64V8ZM60 4H64V8L60 8V4ZM60 4V2.25704e-06L56 0V4L60 4ZM112 20H116V16H120V12H124V8H120V4H116V2.25704e-06L112 0V4L116 4V8L120 8V12L116 12V16H112V20ZM148 20H144V16H148V20ZM152 12V16H148V12L152 12ZM152 8H156V12H152V8ZM148 4H152V8L148 8V4ZM148 4V0H144V4L148 4ZM0 20H4L4 16H8L8 12H12V8H8V4H4L4 4.16439e-06L0 3.8147e-06V4L4 4L4 8L8 8V12L4 12V16H0V20ZM32 20V16H36V12L40 12V8L36 8V4L32 4V0H48V4H52V8H56V12H52V16H48V20L32 20ZM88 16V20L104 20V16H108V12H112V8H108V4H104V0H88V4L92 4V8L96 8V12L92 12V16H88Z" fill="white"/>
</svg>
