<svg width="148" height="20" viewBox="0 0 148 20" fill="none" xmlns="http://www.w3.org/2000/svg">
<path fill-rule="evenodd" clip-rule="evenodd" d="M0 0H20V4H16V8H12V12H8V8H4V4H0V0ZM32 0H52V4H48V8H44V12H40V8H36V4H32V0ZM84 0H64V4H68V8H72V12H76V8H80V4H84V0ZM96 0H116V4H112V8H108V12H104V8H100V4H96V0ZM148 0H128V4H132V8H136V12H140V8H144V4H148V0ZM28 12V8H24V12L20 12V16L16 16V20L36 20V16H32V12H28ZM60 8V12H64V16H68V20L48 20V16L52 16V12L56 12V8H60ZM92 12V8H88V12L84 12V16L80 16V20L100 20V16H96V12H92ZM124 8V12H128V16H132V20L112 20V16L116 16V12L120 12V8H124Z" fill="white"/>
</svg>
