<svg width="128" height="20" viewBox="0 0 128 20" fill="none" xmlns="http://www.w3.org/2000/svg">
<path fill-rule="evenodd" clip-rule="evenodd" d="M80 0H0V20H80H84H88H92H96V16H100V20H104V16H108V20H112V16H116V20H120V16H124V20H128V16H124V12H120V8H116V4H112V0H108V4H104V0H100V4H96V0H92V4H88V0H84V4H80V0ZM88 8H84V4H88V8ZM92 8H88V12H92V16H96V12H100V16H104V12H108V16H112V12H116V16H120V12H116V8H112V4H108V8H104V4H100V8H96V4H92V8ZM92 8H96V12H92V8ZM100 8H104V12H100V8ZM108 8H112V12H108V8Z" fill="white"/>
</svg>
