<?xml version="1.0" encoding="utf-8"?>
<svg version="1.1" xmlns:xlink="http://www.w3.org/1999/xlink" width="48px" height="28px" xmlns="http://www.w3.org/2000/svg">
  <g transform="matrix(1 0 0 1 -281 -54 )">
    <path d="M 44 24  L 48 24  L 48 28  L 28 28  L 28 24  L 40 24  L 40 20  L 44 20  L 44 24  Z M 36 20  L 36 16  L 40 16  L 40 20  L 36 20  Z M 36 16  L 36 12  L 32 12  L 32 16  L 36 16  Z M 36 8  L 40 8  L 40 12  L 36 12  L 36 8  Z M 4 8  L 4 4  L 40 4  L 40 8  L 44 8  L 44 4  L 48 3.99999809265137  L 48 0  L 0 0  L 0 8  L 4 8  L 4 12  L 8 12  L 8 16  L 12 16  L 12 12  L 8 12  L 8 8  L 4 8  Z " fill-rule="nonzero" fill="#ffffff" stroke="none" transform="matrix(1 0 0 1 281 54 )" />
  </g>
</svg>