<?xml version="1.0" encoding="utf-8"?>
<svg version="1.1" xmlns:xlink="http://www.w3.org/1999/xlink" width="32px" height="52px" xmlns="http://www.w3.org/2000/svg">
  <g transform="matrix(1 0 0 1 -69 -70 )">
    <path d="M 24 48  L 20 48  L 20 52  L 32 52  L 32 40  L 28 40  L 28 44  L 24 44  L 24 48  Z M 20 36  L 16 36  L 16 40  L 12 40  L 12 44  L 24 44  L 24 40  L 28 40  L 28 36  L 32 36  L 32 24  L 28 24  L 28 28  L 24 28  L 24 32  L 20 32  L 20 36  Z M 12 28  L 8 28  L 8 32  L 4 32  L 4 36  L 16 36  L 16 32  L 20 32  L 20 28  L 24 28  L 24 24  L 28 24  L 28 20  L 32 20  L 32 8  L 28 8  L 28 12  L 24 12  L 24 16  L 20 16  L 20 20  L 16 20  L 16 24  L 12 24  L 12 28  Z M 4 28  L 8 28  L 8 24  L 12 24  L 12 20  L 16 20  L 16 16  L 20 16  L 20 12  L 24 12  L 24 8  L 28 8  L 28 4  L 32 4  L 32 0  L 20 0  L 20 4  L 16 4  L 16 8  L 12 8  L 12 12  L 8 12  L 8 16  L 3.99999976158142 16  L 4 20  L 0 20  L 0 24  L 3.99999976158142 24  L 4 28  Z " fill-rule="nonzero" fill="#ffffff" stroke="none" transform="matrix(1 0 0 1 69 70 )" />
  </g>
</svg>