<?xml version="1.0" encoding="utf-8"?>
<svg version="1.1" xmlns:xlink="http://www.w3.org/1999/xlink" width="24px" height="20px" xmlns="http://www.w3.org/2000/svg">
  <g transform="matrix(1 0 0 1 -799 -108 )">
    <path d="M 16 4  L 16 0  L 8 0  L 8 4  L 4 4  L 4 8  L 0 8  L 0 12  L 4 12  L 4 16  L 8 16  L 8 20  L 16 20  L 16 16  L 20 16  L 20 12  L 24 12  L 24 8  L 20 8  L 20 4  L 16 4  Z M 8 4  L 16 4  L 16 8  L 20 8  L 20 12  L 16 12  L 16 16  L 8 16  L 8 12  L 4 12  L 4 8  L 8 8  L 8 4  Z " fill-rule="nonzero" fill="#ffffff" stroke="none" transform="matrix(1 0 0 1 799 108 )" />
  </g>
</svg>