<?xml version="1.0" encoding="utf-8"?>
<svg version="1.1" xmlns:xlink="http://www.w3.org/1999/xlink" width="32px" height="52px" xmlns="http://www.w3.org/2000/svg">
  <g transform="matrix(1 0 0 1 -285 -70 )">
    <path d="M 8 48  L 12 48  L 12 52  L 0 52  L 0 40  L 4 40  L 4 44  L 8 44  L 8 48  Z M 12 36  L 15.9999980926514 36  L 15.9999980926514 40  L 20 40  L 20 44  L 8 44  L 8 40  L 4 40  L 3.99999809265137 36  L 0 36  L 0 24  L 4 24  L 4 28  L 8 28  L 8 32  L 12 32  L 12 36  Z M 20 28  L 24 28  L 24 32  L 28 32  L 28 36  L 15.9999980926514 36  L 16 32  L 12 32  L 12 28  L 8 28  L 8 24  L 4 24  L 4 20  L 0 20  L 0 8  L 4 8  L 4 12  L 8 12  L 8 16  L 12 16  L 12 20  L 16 20  L 16 24  L 20 24  L 20 28  Z M 28 28  L 24 28  L 24 24  L 20 24  L 20 20  L 16 20  L 16 16  L 12 16  L 12 12  L 8 12  L 8 8  L 4 8  L 4 4  L 0 4  L 0 0  L 12 0  L 12 4  L 16 4  L 16 8  L 20 8  L 20 12  L 24 12  L 24 16  L 28 16  L 28 20  L 32 20  L 32 24  L 28 24  L 28 28  Z " fill-rule="nonzero" fill="#f3533f" stroke="none" transform="matrix(1 0 0 1 285 70 )" />
  </g>
</svg>