<?xml version="1.0" encoding="utf-8"?>
<svg version="1.1" xmlns:xlink="http://www.w3.org/1999/xlink" width="20px" height="20px" xmlns="http://www.w3.org/2000/svg">
  <g transform="matrix(1 0 0 1 -1132 -270 )">
    <path d="M 4 4  L 4 0  L 0 0  L 0 4  L 4 4  L 4 8  L 8 8  L 8 12  L 4 12  L 4 16  L 0 16  L 0 20  L 4 20  L 4 16  L 8 16  L 8 12  L 12 12  L 12 16  L 16 16  L 16 20  L 20 20  L 20 16  L 16 16  L 16 12  L 12 12  L 12 8  L 16 8  L 16 4  L 20 4  L 20 0  L 16 0  L 16 4  L 12 4  L 12 8  L 8 8  L 8 4  L 4 4  Z " fill-rule="nonzero" fill="#ffffff" stroke="none" transform="matrix(1 0 0 1 1132 270 )" />
  </g>
</svg>