<?xml version="1.0" encoding="utf-8"?>
<svg version="1.1" xmlns:xlink="http://www.w3.org/1999/xlink" width="28px" height="44px" xmlns="http://www.w3.org/2000/svg">
  <g transform="matrix(1 0 0 1 -859 -152 )">
    <path d="M 24 12  L 20 12  L 20 8  L 16 8  L 16 3.99999976158142  L 20 3.99999976158142  L 20 0  L 28 0  L 28 44  L 0 44  L 0 36  L 4 36  L 4 40  L 8 40  L 8 36  L 12 36  L 12 40  L 16 40  L 16 36  L 20 36  L 20 40  L 24 40  L 24 36  L 20 36  L 20 32  L 24 32  L 24 28  L 20 28  L 20 24  L 24 24  L 24 20  L 20 20  L 20 16  L 24 16  L 24 12  Z M 20 8  L 20 3.99999976158142  L 24 4  L 24 8  L 20 8  Z M 20 16  L 20 12  L 16 12  L 16 16  L 20 16  Z M 16 20  L 20 20  L 20 24  L 16 24  L 16 20  Z M 16 36  L 16 32  L 12 32  L 12 36  L 16 36  Z M 20 32  L 16 32  L 16 28  L 20 28  L 20 32  Z M 8 32  L 8 36  L 4 36  L 4 32  L 8 32  Z " fill-rule="nonzero" fill="#212930" stroke="none" transform="matrix(1 0 0 1 859 152 )" />
  </g>
</svg>