<?xml version="1.0" encoding="utf-8"?>
<svg version="1.1" xmlns:xlink="http://www.w3.org/1999/xlink" width="20px" height="22px" xmlns="http://www.w3.org/2000/svg">
  <g transform="matrix(1 0 0 1 -1070 -727 )">
    <path d="M 4 4.4  L 4 0  L 0 0  L 0 4.4  L 4 4.4  L 4 8.8  L 8 8.8  L 8 13.2  L 4 13.2  L 4 17.6  L 0 17.6  L 0 22  L 4 22  L 4 17.6  L 8 17.6  L 8 13.2  L 12 13.2  L 12 17.6  L 16 17.6  L 16 22  L 20 22  L 20 17.6  L 16 17.6  L 16 13.2  L 12 13.2  L 12 8.8  L 16 8.8  L 16 4.4  L 20 4.4  L 20 0  L 16 0  L 16 4.4  L 12 4.4  L 12 8.8  L 8 8.8  L 8 4.4  L 4 4.4  Z " fill-rule="nonzero" fill="#ffffff" stroke="none" transform="matrix(1 0 0 1 1070 727 )" />
  </g>
</svg>