<?xml version="1.0" encoding="utf-8"?>
<svg version="1.1" xmlns:xlink="http://www.w3.org/1999/xlink" width="32px" height="52px" xmlns="http://www.w3.org/2000/svg">
  <g transform="matrix(1 0 0 1 -69 -70 )">
    <path d="M 24 4  L 20 3.99999952316284  L 20 0  L 32 0  L 32 12  L 28 12  L 28 8  L 24 8  L 24 4  Z M 20 16  L 16 16  L 16 12  L 12 12  L 12 8  L 24 8  L 24 12  L 28 12  L 28 16  L 32 16  L 32 28  L 28 28  L 28 24  L 24 24  L 24 20  L 20 20  L 20 16  Z M 12 24  L 8 24  L 8 20  L 4 20  L 4 16  L 16 16  L 16 20  L 20 20  L 20 24  L 24 24  L 24 28  L 28 28  L 28 32  L 32 32  L 32 44  L 28 44  L 28 40  L 24 40  L 24 36  L 20 36  L 20 32  L 16 32  L 16 28  L 12 28  L 12 24  Z M 4 24  L 8 24  L 8 28  L 12 28  L 12 32  L 16 32  L 16 36  L 20 36  L 20 40  L 24 40  L 24 44  L 28 44  L 28 48  L 32 48  L 32 52  L 20 52  L 20 48  L 16 48  L 16 44  L 12 44  L 12 40  L 8 40  L 8 36  L 3.99999976158142 36  L 4 32  L 0 32  L 0 28  L 3.99999976158142 28  L 4 24  Z " fill-rule="nonzero" fill="#f3533f" stroke="none" transform="matrix(1 0 0 1 69 70 )" />
  </g>
</svg>