<?xml version="1.0" encoding="utf-8"?>
<svg version="1.1" xmlns:xlink="http://www.w3.org/1999/xlink" width="32px" height="27px" xmlns="http://www.w3.org/2000/svg">
  <g transform="matrix(1 0 0 1 -24 -17 )">
    <path d="M 26.1928639606568 5.39781989028224  C 26.1928639606568 5.39781989028224  12.5565389056801 17.7948052006263  12.5565389056801 17.7948052006263  C 12.5565389056801 17.7948052006263  12.0271937221292 25.333167172334  12.0271937221292 25.333167172334  C 12.7845452573035 25.333167172334  13.1125521255129 25.003770574881  13.5058948819045 24.6082225948315  C 13.5058948819045 24.6082225948315  17.0566469118887 21.1724888978576  17.0566469118887 21.1724888978576  C 17.0566469118887 21.1724888978576  24.4141550918291 26.6278125856514  24.4141550918291 26.6278125856514  C 25.763520763975 27.3892086787444  26.7142117573381 26.9882584222837  27.0782204963835 25.3709668128769  C 27.0782204963835 25.3709668128769  31.9076693945056 2.45888496353264  31.9076693945056 2.45888496353264  C 31.9076693945056 2.45888496353264  31.9090020274013 2.45753474646794  31.9090020274013 2.45753474646794  C 32.3370123130257 0.437945077511388  31.187650813305 -0.351800776163515  29.8729525909172 0.143646690706964  C 29.8729525909172 0.143646690706964  1.48560608649557 11.1474397218947  1.48560608649557 11.1474397218947  C -0.451773678116067 11.9088358149878  -0.422439700507287 13.0023303880486  1.15626487668298 13.497777854919  C 1.15626487668298 13.497777854919  8.41377234135048 15.7833158684676  8.41377234135048 15.7833158684676  C 8.41377234135048 15.7833158684676  25.2715085343979 5.10352149341959  25.2715085343979 5.10352149341959  C 26.0648609469736 4.57162424097452  26.7862115252718 4.86592263783718  26.1928639606568 5.39781989028224  Z " fill-rule="nonzero" fill="#ffffff" stroke="none" transform="matrix(1 0 0 1 24 17 )" />
  </g>
</svg>