<?xml version="1.0" encoding="utf-8"?>
<svg version="1.1" xmlns:xlink="http://www.w3.org/1999/xlink" width="32px" height="19px" xmlns="http://www.w3.org/2000/svg">
  <g transform="matrix(1 0 0 1 -24 -21 )">
    <path d="M 26.5701022562007 9.36476816006416  C 26.536211823102 9.36476816006417  30.8064022095542 3.3469732072483  31.2469778171117 1.31850334620918  C 31.4842108412274 0.57473104770734  31.2469808875531 0.0338073151507566  30.1963775094697 0.0338073151507566  C 30.1963775094697 0.0338073151507566  26.7056619180675 0.0338073151507566  26.7056619180675 0.0338073151507566  C 25.8245107029525 0.0338073151507566  25.4178254754679 0.507117465259781  25.1805924513523 1.01423493051956  C 25.1805924513523 1.01423493051956  23.384400590462 5.34163414105367  20.8765085462099 8.14768417997444  C 20.0631381316413 8.95907215663175  19.6903423550172 9.22953889946114  19.2497667474597 9.22953889946114  C 19.012533723344 9.22953889946114  18.7075177574531 8.95907626744342  18.7075177574531 8.21530396894157  C 18.7075177574531 8.21530396894157  18.7075177574531 1.28469603105843  18.7075177574531 1.28469603105843  C 18.7075177574531 0.405692456849798  18.4363943128639 0  17.6908047796429 0  C 17.6908047796429 0  12.200555733722 0  12.200555733722 0  C 11.6583088041431 0  11.3194075890483 0.405691892620746  11.3194075890483 0.811385880949401  C 11.3194075890483 1.65658165638237  12.5733504902323 1.85943070595253  12.708912222627 4.22597887716484  C 12.708912222627 4.22597887716484  12.708912222627 9.36476816006416  12.708912222627 9.36476816006416  C 12.708912222627 10.4804265675148  12.5055716794126 10.6832715062733  12.0649960718551 10.6832715062733  C 10.8788309310766 10.6832715062733  7.99814205978618 6.32206433575528  6.26973002982934 1.35231324069275  C 5.93082570389262 0.371886108948846  5.59192186276242 0  4.71077064764738 0  C 4.71077064764738 0  1.18616514077852 0  1.18616514077852 0  C 0.169452162968361 0  0 0.473307570776214  0 0.980425036035995  C 0 1.89323648962443  1.18616611039158 6.49110252359207  5.52414154702248 12.5765121067094  C 8.4048283174846 16.734875386323  12.5055707906007 18.9661901055164  16.1996278140292 18.9661901055164  C 18.4363963328911 18.9661901055164  18.7075177574531 18.4590726402567  18.7075177574531 17.6138768648237  C 18.7075177574531 17.6138768648237  18.7075177574531 14.4697527071455  18.7075177574531 14.4697527071455  C 18.7075177574531 13.455517776626  18.9108645223512 13.2864786215394  19.6225635744979 13.2864786215394  C 20.130920063403 13.2864786215394  21.0459576387369 13.5569402057032  23.1132739946304 15.5516022679666  C 25.4856042761875 17.9181504391789  25.892291503499 19  27.2140184069726 19  C 27.2140184069726 19  30.7047339983748 19  30.7047339983748 19  C 31.7214469761849 19  32.1959099337746 18.4928846304481  31.9247864689852 17.5124574987042  C 31.6197725837222 16.5320303669603  30.4674989340316 15.1120994330083  28.9763198675896 13.4217078821424  C 28.1629494530211 12.4750886297783  26.9428970228112 11.4270479155869  26.5701022562007 10.9199304503271  C 26.0617457672956 10.2437738299807  26.1973074895902 9.97330910225507  26.5701022562007 9.36476816006416  Z " fill-rule="nonzero" fill="#ffffff" stroke="none" transform="matrix(1 0 0 1 24 21 )" />
  </g>
</svg>