<?xml version="1.0" encoding="utf-8"?>
<svg version="1.1" xmlns:xlink="http://www.w3.org/1999/xlink" width="16px" height="30px" xmlns="http://www.w3.org/2000/svg">
  <g transform="matrix(1 0 0 1 -32 -15 )">
    <path d="M 10.5936073059361 16.747572815534  L 14.951598173516 16.747572815534  L 15.7808219178082 11.3592233009709  L 10.5936073059361 11.3592233009709  C 10.5936073059361 11.3592233009709  10.5936073059361 7.86262112219357  10.5936073059361 7.86262112219357  C 10.5936073059361 6.38847054787052  11.318356402207 4.95145631067961  13.6416440734399 4.95145631067961  C 13.6416440734399 4.95145631067961  16 4.95145631067961  16 4.95145631067961  C 16 4.95145631067961  16 0.364077669902913  16 0.364077669902913  C 16 0.364077669902913  13.8597262354928 0  11.8133335711568 0  C 7.54118745243531 0  4.74885844748859 2.58058299833131  4.74885844748859 7.25242777704035  C 4.74885844748859 7.25242777704035  4.74885844748859 11.3592233009709  4.74885844748859 11.3592233009709  L 0 11.3592233009709  L 0 16.747572815534  L 4.74885844748859 16.747572815534  C 4.74885844748859 16.747572815534  4.74885844748859 30  4.74885844748859 30  C 6.42435312024353 30  8.91811263318113 30  10.5936073059361 30  C 10.5936073059361 30  10.5936073059361 16.747572815534  10.5936073059361 16.747572815534  Z " fill-rule="nonzero" fill="#ffffff" stroke="none" transform="matrix(1 0 0 1 32 15 )" />
  </g>
</svg>