<!-- Generator: Adobe Illustrator 21.1.0, SVG Export Plug-In  -->
<svg version="1.1"
	 xmlns="http://www.w3.org/2000/svg" xmlns:xlink="http://www.w3.org/1999/xlink" xmlns:a="http://ns.adobe.com/AdobeSVGViewerExtensions/3.0/"
	 x="0px" y="0px" width="66px" height="30.8px" viewBox="0 0 66 30.8" style="overflow:scroll;enable-background:new 0 0 66 30.8;"
	 xml:space="preserve">
<style type="text/css">
	.st0{fill:#FFE1BD;}
	.st1{fill:#A38469;}
	.st2{fill:#66C4DD;}
	.st3{fill:#3DA1C5;}
</style>
<defs>
</defs>
<g>
	<g>
		<path class="st0" d="M29,15.5c-3,0-5.5-2.5-5.5-5.5V0.5h19V10c0,3-2.5,5.5-5.5,5.5H29z"/>
		<path class="st1" d="M42,1v9c0,2.8-2.2,5-5,5h-8c-2.8,0-5-2.2-5-5V1H42 M43,0h-1H24h-1v1v9c0,3.3,2.7,6,6,6h8c3.3,0,6-2.7,6-6V1V0
			L43,0z"/>
	</g>
	<g>
		<path class="st2" d="M33,30.3c-11.4,0-22.6-3-32.5-8.6V20C0.5,13.7,5.7,8.5,12,8.5h11.5V10c0,3,2.5,5.5,5.5,5.5h8
			c3,0,5.5-2.5,5.5-5.5V8.5H54c6.3,0,11.5,5.2,11.5,11.5v1.7C55.6,27.3,44.4,30.3,33,30.3z"/>
		<path class="st3" d="M54,9c6.1,0,11,4.9,11,11v1.4c-9.7,5.5-20.8,8.4-32,8.4s-22.3-2.9-32-8.4V20C1,13.9,5.9,9,12,9h11v1
			c0,3.3,2.7,6,6,6h8c3.3,0,6-2.7,6-6V9H54 M54,8H42v2c0,2.8-2.2,5-5,5h-8c-2.8,0-5-2.2-5-5V8H12C5.4,8,0,13.4,0,20v2
			c9.7,5.6,21,8.9,33,8.9s23.3-3.2,33-8.9v-2C66,13.4,60.6,8,54,8L54,8z"/>
	</g>
</g>
</svg>
