<!-- Generator: Adobe Illustrator 21.1.0, SVG Export Plug-In  -->
<svg version="1.1"
	 xmlns="http://www.w3.org/2000/svg" xmlns:xlink="http://www.w3.org/1999/xlink" xmlns:a="http://ns.adobe.com/AdobeSVGViewerExtensions/3.0/"
	 x="0px" y="0px" width="76px" height="91.5px" viewBox="0 0 76 91.5" style="overflow:scroll;enable-background:new 0 0 76 91.5;"
	 xml:space="preserve">
<style type="text/css">
	.st0{fill:#FFE1BD;}
	.st1{fill:#A38469;}
	.st2{fill:#DBB471;}
	.st3{clip-path:url(#SVGID_2_);fill:#FFE1BD;}
	.st4{clip-path:url(#SVGID_2_);fill:#FEE1BD;}
	.st5{clip-path:url(#SVGID_2_);fill:#FDE1BD;}
	.st6{clip-path:url(#SVGID_2_);fill:#FCE1BE;}
	.st7{clip-path:url(#SVGID_2_);fill:#FBE0BE;}
	.st8{clip-path:url(#SVGID_2_);fill:#FAE0BE;}
	.st9{clip-path:url(#SVGID_2_);fill:#F9E0BE;}
	.st10{clip-path:url(#SVGID_2_);fill:#F8E0BF;}
	.st11{clip-path:url(#SVGID_2_);fill:#F7E0BF;}
	.st12{clip-path:url(#SVGID_2_);fill:#F6E0BF;}
	.st13{clip-path:url(#SVGID_2_);fill:#F5E0BF;}
	.st14{clip-path:url(#SVGID_2_);fill:#F4DFC0;}
	.st15{clip-path:url(#SVGID_2_);fill:#F3DFC0;}
	.st16{clip-path:url(#SVGID_2_);fill:#F2DFC0;}
	.st17{clip-path:url(#SVGID_2_);fill:#F1DFC0;}
	.st18{clip-path:url(#SVGID_2_);fill:#F0DFC1;}
	.st19{clip-path:url(#SVGID_2_);fill:#EFDFC1;}
	.st20{clip-path:url(#SVGID_2_);fill:#EEDFC1;}
	.st21{clip-path:url(#SVGID_2_);fill:#EDDEC1;}
	.st22{clip-path:url(#SVGID_2_);fill:#ECDEC2;}
	.st23{clip-path:url(#SVGID_2_);fill:#EBDEC2;}
	.st24{clip-path:url(#SVGID_2_);fill:#EADEC2;}
	.st25{clip-path:url(#SVGID_2_);fill:#E9DEC2;}
	.st26{clip-path:url(#SVGID_2_);fill:#E8DEC3;}
	.st27{clip-path:url(#SVGID_2_);fill:#E7DEC3;}
	.st28{clip-path:url(#SVGID_2_);fill:#E6DDC3;}
	.st29{clip-path:url(#SVGID_2_);fill:#E5DDC3;}
	.st30{clip-path:url(#SVGID_2_);fill:#E4DDC4;}
	.st31{clip-path:url(#SVGID_2_);fill:#E3DDC4;}
	.st32{clip-path:url(#SVGID_2_);fill:#E2DDC4;}
	.st33{clip-path:url(#SVGID_2_);fill:#E1DDC4;}
	.st34{clip-path:url(#SVGID_2_);fill:#E0DCC5;}
	.st35{clip-path:url(#SVGID_2_);fill:#DFDCC5;}
	.st36{clip-path:url(#SVGID_2_);fill:#DEDCC5;}
	.st37{clip-path:url(#SVGID_2_);fill:#DDDCC5;}
	.st38{clip-path:url(#SVGID_2_);fill:#DCDCC6;}
	.st39{clip-path:url(#SVGID_2_);fill:#DBDCC6;}
	.st40{clip-path:url(#SVGID_2_);fill:#DADCC6;}
	.st41{clip-path:url(#SVGID_2_);fill:#D9DBC6;}
	.st42{clip-path:url(#SVGID_2_);fill:#D8DBC7;}
	.st43{clip-path:url(#SVGID_2_);fill:#D7DBC7;}
	.st44{clip-path:url(#SVGID_2_);fill:#D6DBC7;}
	.st45{clip-path:url(#SVGID_2_);fill:#D5DBC7;}
	.st46{clip-path:url(#SVGID_2_);fill:#D4DBC8;}
	.st47{clip-path:url(#SVGID_2_);fill:#D3DBC8;}
	.st48{clip-path:url(#SVGID_2_);fill:#D2DAC8;}
	.st49{clip-path:url(#SVGID_2_);fill:#D1DAC8;}
	.st50{clip-path:url(#SVGID_2_);fill:#D0DAC9;}
	.st51{clip-path:url(#SVGID_2_);fill:#CFDAC9;}
	.st52{clip-path:url(#SVGID_2_);fill:#CEDAC9;}
	.st53{clip-path:url(#SVGID_2_);fill:#CDDAC9;}
	.st54{clip-path:url(#SVGID_2_);fill:#CCDACA;}
	.st55{clip-path:url(#SVGID_2_);fill:#CBD9CA;}
	.st56{clip-path:url(#SVGID_2_);fill:#CAD9CA;}
	.st57{clip-path:url(#SVGID_2_);fill:#C9D9CA;}
	.st58{clip-path:url(#SVGID_2_);fill:#C8D9CB;}
	.st59{clip-path:url(#SVGID_2_);fill:#C7D9CB;}
	.st60{clip-path:url(#SVGID_2_);fill:#C6D9CB;}
	.st61{clip-path:url(#SVGID_2_);fill:#C5D9CB;}
	.st62{clip-path:url(#SVGID_2_);fill:#C3D8CC;}
	.st63{clip-path:url(#SVGID_2_);fill:#C2D8CC;}
	.st64{clip-path:url(#SVGID_2_);fill:#C1D8CC;}
	.st65{clip-path:url(#SVGID_2_);fill:#C0D8CC;}
	.st66{clip-path:url(#SVGID_2_);fill:#BFD8CD;}
	.st67{clip-path:url(#SVGID_2_);fill:#BED8CD;}
	.st68{clip-path:url(#SVGID_2_);fill:#BDD8CD;}
	.st69{clip-path:url(#SVGID_2_);fill:#BCD7CD;}
	.st70{clip-path:url(#SVGID_2_);fill:#BBD7CE;}
	.st71{clip-path:url(#SVGID_2_);fill:#BAD7CE;}
	.st72{clip-path:url(#SVGID_2_);fill:#B9D7CE;}
	.st73{clip-path:url(#SVGID_2_);fill:#B8D7CE;}
	.st74{clip-path:url(#SVGID_2_);fill:#B7D7CF;}
	.st75{clip-path:url(#SVGID_2_);fill:#B6D7CF;}
	.st76{clip-path:url(#SVGID_2_);fill:#B5D6CF;}
	.st77{clip-path:url(#SVGID_2_);fill:#B4D6CF;}
	.st78{clip-path:url(#SVGID_2_);fill:#B3D6D0;}
	.st79{clip-path:url(#SVGID_2_);fill:#B2D6D0;}
	.st80{clip-path:url(#SVGID_2_);fill:#B1D6D0;}
	.st81{clip-path:url(#SVGID_2_);fill:#B0D6D0;}
	.st82{clip-path:url(#SVGID_2_);fill:#AFD6D1;}
	.st83{clip-path:url(#SVGID_2_);fill:#AED5D1;}
	.st84{clip-path:url(#SVGID_2_);fill:#ADD5D1;}
	.st85{clip-path:url(#SVGID_2_);fill:#ACD5D1;}
	.st86{clip-path:url(#SVGID_2_);fill:#ABD5D2;}
	.st87{clip-path:url(#SVGID_2_);fill:#AAD5D2;}
	.st88{clip-path:url(#SVGID_2_);fill:#A9D5D2;}
	.st89{clip-path:url(#SVGID_2_);fill:#A8D5D2;}
	.st90{clip-path:url(#SVGID_2_);fill:#A7D4D3;}
	.st91{clip-path:url(#SVGID_2_);fill:#A6D4D3;}
	.st92{clip-path:url(#SVGID_2_);fill:#A5D4D3;}
	.st93{clip-path:url(#SVGID_2_);fill:#A4D4D3;}
	.st94{clip-path:url(#SVGID_2_);fill:#A3D4D4;}
	.st95{clip-path:url(#SVGID_2_);fill:#A2D4D4;}
	.st96{clip-path:url(#SVGID_2_);fill:#A1D3D4;}
	.st97{clip-path:url(#SVGID_2_);fill:#A0D3D4;}
	.st98{clip-path:url(#SVGID_2_);fill:#9FD3D5;}
	.st99{clip-path:url(#SVGID_2_);fill:#9ED3D5;}
	.st100{clip-path:url(#SVGID_2_);fill:#9DD3D5;}
	.st101{clip-path:url(#SVGID_2_);fill:#9CD3D5;}
	.st102{clip-path:url(#SVGID_2_);fill:#9BD3D6;}
	.st103{clip-path:url(#SVGID_2_);fill:#9AD2D6;}
	.st104{clip-path:url(#SVGID_2_);fill:#99D2D6;}
	.st105{clip-path:url(#SVGID_2_);fill:#98D2D6;}
	.st106{clip-path:url(#SVGID_2_);fill:#97D2D7;}
	.st107{clip-path:url(#SVGID_2_);fill:#96D2D7;}
	.st108{clip-path:url(#SVGID_2_);fill:#95D2D7;}
	.st109{clip-path:url(#SVGID_2_);fill:#94D2D7;}
	.st110{clip-path:url(#SVGID_2_);fill:#93D1D8;}
	.st111{clip-path:url(#SVGID_2_);fill:#92D1D8;}
	.st112{clip-path:url(#SVGID_2_);fill:#91D1D8;}
	.st113{clip-path:url(#SVGID_2_);fill:#90D1D8;}
	.st114{clip-path:url(#SVGID_2_);fill:#8FD1D9;}
	.st115{fill:#9FDAEC;}
	.st116{fill:#52C1DB;}
	.st117{fill:#F3FDFF;}
	.st118{fill:#494949;}
	.st119{clip-path:url(#SVGID_4_);fill:#FFE1BD;}
	.st120{clip-path:url(#SVGID_4_);fill:#FEE1BD;}
	.st121{clip-path:url(#SVGID_4_);fill:#FDE1BD;}
	.st122{clip-path:url(#SVGID_4_);fill:#FCE1BE;}
	.st123{clip-path:url(#SVGID_4_);fill:#FBE0BE;}
	.st124{clip-path:url(#SVGID_4_);fill:#FAE0BE;}
	.st125{clip-path:url(#SVGID_4_);fill:#F9E0BE;}
	.st126{clip-path:url(#SVGID_4_);fill:#F8E0BF;}
	.st127{clip-path:url(#SVGID_4_);fill:#F7E0BF;}
	.st128{clip-path:url(#SVGID_4_);fill:#F6E0BF;}
	.st129{clip-path:url(#SVGID_4_);fill:#F5E0BF;}
	.st130{clip-path:url(#SVGID_4_);fill:#F4DFC0;}
	.st131{clip-path:url(#SVGID_4_);fill:#F3DFC0;}
	.st132{clip-path:url(#SVGID_4_);fill:#F2DFC0;}
	.st133{clip-path:url(#SVGID_4_);fill:#F1DFC0;}
	.st134{clip-path:url(#SVGID_4_);fill:#F0DFC1;}
	.st135{clip-path:url(#SVGID_4_);fill:#EFDFC1;}
	.st136{clip-path:url(#SVGID_4_);fill:#EEDFC1;}
	.st137{clip-path:url(#SVGID_4_);fill:#EDDEC1;}
	.st138{clip-path:url(#SVGID_4_);fill:#ECDEC2;}
	.st139{clip-path:url(#SVGID_4_);fill:#EBDEC2;}
	.st140{clip-path:url(#SVGID_4_);fill:#EADEC2;}
	.st141{clip-path:url(#SVGID_4_);fill:#E9DEC2;}
	.st142{clip-path:url(#SVGID_4_);fill:#E8DEC3;}
	.st143{clip-path:url(#SVGID_4_);fill:#E7DEC3;}
	.st144{clip-path:url(#SVGID_4_);fill:#E6DDC3;}
	.st145{clip-path:url(#SVGID_4_);fill:#E5DDC3;}
	.st146{clip-path:url(#SVGID_4_);fill:#E4DDC4;}
	.st147{clip-path:url(#SVGID_4_);fill:#E3DDC4;}
	.st148{clip-path:url(#SVGID_4_);fill:#E2DDC4;}
	.st149{clip-path:url(#SVGID_4_);fill:#E1DDC4;}
	.st150{clip-path:url(#SVGID_4_);fill:#E0DCC5;}
	.st151{clip-path:url(#SVGID_4_);fill:#DFDCC5;}
	.st152{clip-path:url(#SVGID_4_);fill:#DEDCC5;}
	.st153{clip-path:url(#SVGID_4_);fill:#DDDCC5;}
	.st154{clip-path:url(#SVGID_4_);fill:#DCDCC6;}
	.st155{clip-path:url(#SVGID_4_);fill:#DBDCC6;}
	.st156{clip-path:url(#SVGID_4_);fill:#DADCC6;}
	.st157{clip-path:url(#SVGID_4_);fill:#D9DBC6;}
	.st158{clip-path:url(#SVGID_4_);fill:#D8DBC7;}
	.st159{clip-path:url(#SVGID_4_);fill:#D7DBC7;}
	.st160{clip-path:url(#SVGID_4_);fill:#D6DBC7;}
	.st161{clip-path:url(#SVGID_4_);fill:#D5DBC7;}
	.st162{clip-path:url(#SVGID_4_);fill:#D4DBC8;}
	.st163{clip-path:url(#SVGID_4_);fill:#D3DBC8;}
	.st164{clip-path:url(#SVGID_4_);fill:#D2DAC8;}
	.st165{clip-path:url(#SVGID_4_);fill:#D1DAC8;}
	.st166{clip-path:url(#SVGID_4_);fill:#D0DAC9;}
	.st167{clip-path:url(#SVGID_4_);fill:#CFDAC9;}
	.st168{clip-path:url(#SVGID_4_);fill:#CEDAC9;}
	.st169{clip-path:url(#SVGID_4_);fill:#CDDAC9;}
	.st170{clip-path:url(#SVGID_4_);fill:#CCDACA;}
	.st171{clip-path:url(#SVGID_4_);fill:#CBD9CA;}
	.st172{clip-path:url(#SVGID_4_);fill:#CAD9CA;}
	.st173{clip-path:url(#SVGID_4_);fill:#C9D9CA;}
	.st174{clip-path:url(#SVGID_4_);fill:#C8D9CB;}
	.st175{clip-path:url(#SVGID_4_);fill:#C7D9CB;}
	.st176{clip-path:url(#SVGID_4_);fill:#C6D9CB;}
	.st177{clip-path:url(#SVGID_4_);fill:#C5D9CB;}
	.st178{clip-path:url(#SVGID_4_);fill:#C3D8CC;}
	.st179{clip-path:url(#SVGID_4_);fill:#C2D8CC;}
	.st180{clip-path:url(#SVGID_4_);fill:#C1D8CC;}
	.st181{clip-path:url(#SVGID_4_);fill:#C0D8CC;}
	.st182{clip-path:url(#SVGID_4_);fill:#BFD8CD;}
	.st183{clip-path:url(#SVGID_4_);fill:#BED8CD;}
	.st184{clip-path:url(#SVGID_4_);fill:#BDD8CD;}
	.st185{clip-path:url(#SVGID_4_);fill:#BCD7CD;}
	.st186{clip-path:url(#SVGID_4_);fill:#BBD7CE;}
	.st187{clip-path:url(#SVGID_4_);fill:#BAD7CE;}
	.st188{clip-path:url(#SVGID_4_);fill:#B9D7CE;}
	.st189{clip-path:url(#SVGID_4_);fill:#B8D7CE;}
	.st190{clip-path:url(#SVGID_4_);fill:#B7D7CF;}
	.st191{clip-path:url(#SVGID_4_);fill:#B6D7CF;}
	.st192{clip-path:url(#SVGID_4_);fill:#B5D6CF;}
	.st193{clip-path:url(#SVGID_4_);fill:#B4D6CF;}
	.st194{clip-path:url(#SVGID_4_);fill:#B3D6D0;}
	.st195{clip-path:url(#SVGID_4_);fill:#B2D6D0;}
	.st196{clip-path:url(#SVGID_4_);fill:#B1D6D0;}
	.st197{clip-path:url(#SVGID_4_);fill:#B0D6D0;}
	.st198{clip-path:url(#SVGID_4_);fill:#AFD6D1;}
	.st199{clip-path:url(#SVGID_4_);fill:#AED5D1;}
	.st200{clip-path:url(#SVGID_4_);fill:#ADD5D1;}
	.st201{clip-path:url(#SVGID_4_);fill:#ACD5D1;}
	.st202{clip-path:url(#SVGID_4_);fill:#ABD5D2;}
	.st203{clip-path:url(#SVGID_4_);fill:#AAD5D2;}
	.st204{clip-path:url(#SVGID_4_);fill:#A9D5D2;}
	.st205{clip-path:url(#SVGID_4_);fill:#A8D5D2;}
	.st206{clip-path:url(#SVGID_4_);fill:#A7D4D3;}
	.st207{clip-path:url(#SVGID_4_);fill:#A6D4D3;}
	.st208{clip-path:url(#SVGID_4_);fill:#A5D4D3;}
	.st209{clip-path:url(#SVGID_4_);fill:#A4D4D3;}
	.st210{clip-path:url(#SVGID_4_);fill:#A3D4D4;}
	.st211{clip-path:url(#SVGID_4_);fill:#A2D4D4;}
	.st212{clip-path:url(#SVGID_4_);fill:#A1D3D4;}
	.st213{clip-path:url(#SVGID_4_);fill:#A0D3D4;}
	.st214{clip-path:url(#SVGID_4_);fill:#9FD3D5;}
	.st215{clip-path:url(#SVGID_4_);fill:#9ED3D5;}
	.st216{clip-path:url(#SVGID_4_);fill:#9DD3D5;}
	.st217{clip-path:url(#SVGID_4_);fill:#9CD3D5;}
	.st218{clip-path:url(#SVGID_4_);fill:#9BD3D6;}
	.st219{clip-path:url(#SVGID_4_);fill:#9AD2D6;}
	.st220{clip-path:url(#SVGID_4_);fill:#99D2D6;}
	.st221{clip-path:url(#SVGID_4_);fill:#98D2D6;}
	.st222{clip-path:url(#SVGID_4_);fill:#97D2D7;}
	.st223{clip-path:url(#SVGID_4_);fill:#96D2D7;}
	.st224{clip-path:url(#SVGID_4_);fill:#95D2D7;}
	.st225{clip-path:url(#SVGID_4_);fill:#94D2D7;}
	.st226{clip-path:url(#SVGID_4_);fill:#93D1D8;}
	.st227{clip-path:url(#SVGID_4_);fill:#92D1D8;}
	.st228{clip-path:url(#SVGID_4_);fill:#91D1D8;}
	.st229{clip-path:url(#SVGID_4_);fill:#90D1D8;}
	.st230{clip-path:url(#SVGID_4_);fill:#8FD1D9;}
</style>
<defs>
</defs>
<g>
	<g>
		<g>
			<path class="st0" d="M5,64.5c-2.5,0-4.5-2-4.5-4.5v-3c0-2.5,2-4.5,4.5-4.5h66c2.5,0,4.5,2,4.5,4.5v3c0,2.5-2,4.5-4.5,4.5H5z"/>
		</g>
		<g>
			<path class="st1" d="M71,53c2.2,0,4,1.8,4,4v3c0,2.2-1.8,4-4,4H5c-2.2,0-4-1.8-4-4v-3c0-2.2,1.8-4,4-4H71 M71,52H5
				c-2.8,0-5,2.3-5,5v3c0,2.8,2.3,5,5,5h66c2.8,0,5-2.2,5-5v-3C76,54.3,73.8,52,71,52L71,52z"/>
		</g>
	</g>
	<g>
		<g>
			<path class="st2" d="M38,78.5c-20.7,0-37.5-16.8-37.5-37.4v-5c0-7,2.5-13.8,7.1-19.2l0.2-0.3l-0.2-0.3c-0.1-0.3-0.2-0.4-0.2-0.4
				l0-0.1l0,0c-1.9-2.5-4-5.6-4.3-6.6c1,0.2,1.9,0.3,2.9,0.3c4.3,0,6.8-2.4,6.9-2.5c0.3-0.4,0.1-0.6-0.1-0.8c-1.5-2-2.1-3-2.4-3.5
				c1.3,0.2,2.8,0.3,4.5,0.3c4.3,0,9.3-0.8,13.2-1.4c4.4-0.8,8.6-1.2,12.4-1.2c15.8,0,23.1,6.8,24.7,13.1l0,0.2l0.1,0.1
				c6.5,5.6,10.2,13.7,10.2,22.2v5C75.5,61.7,58.7,78.5,38,78.5z"/>
		</g>
		<g>
			<path class="st1" d="M40.5,1C56,1,63.2,7.6,64.7,13.7l0.1,0.3l0.2,0.2c6.4,5.5,10,13.5,10,21.8v5C75,61.4,58.4,78,38,78
				S1,61.4,1,41.1v-5c0-6.9,2.5-13.6,7-18.8l0.4-0.5l-0.3-0.6c-0.1-0.2-0.2-0.4-0.2-0.4l0-0.1l-0.1-0.1c-1.5-2-3.1-4.3-3.9-5.7
				C4.6,10,5.3,10,5.9,10c4.5,0,7.1-2.6,7.2-2.7l0.1-0.1l0-0.1c0.4-0.6,0-1.2-0.1-1.3c-0.9-1.2-1.4-2-1.8-2.5
				c1.1,0.1,2.3,0.2,3.6,0.2c4.4,0,9.4-0.8,13.3-1.4C32.6,1.4,36.7,1,40.5,1 M40.5,0C36.8,0,32.7,0.4,28,1.2
				c-4.2,0.7-8.9,1.4-13.1,1.4c-1.8,0-3.4-0.1-4.9-0.4c0,0-0.1,0-0.1,0c-1,0,2.6,4.5,2.6,4.5c0,0-2.3,2.4-6.5,2.4C5,9,4.1,8.9,3,8.6
				c-0.1,0-0.1,0-0.2,0C1.2,8.6,7,16.1,7,16.1s0.1,0.2,0.2,0.5C2.7,21.8,0,28.6,0,36.1v5C0,62,17,79,38,79s38-17,38-37.9v-5
				c0-9-4-17.1-10.3-22.6C64.1,7.3,57.2,0,40.5,0L40.5,0z"/>
		</g>
	</g>
	<g>
		<g>
			<defs>
				<path id="SVGID_1_" d="M57.6,26c-5,2.5-12,4-19.6,4c-8.7,0-15.1-1.7-19.7-3.9C10.3,31.5,5,40.6,5,51v14c0,14.4,11.6,26,26,26h14
					c14.4,0,26-11.6,26-26V51C71,40.6,65.7,31.4,57.6,26z"/>
			</defs>
			<clipPath id="SVGID_2_">
				<use xlink:href="#SVGID_1_"  style="overflow:visible;"/>
			</clipPath>
			<rect x="5" y="58.6" class="st3" width="66" height="32.4"/>
			<rect x="5" y="58.3" class="st3" width="66" height="0.3"/>
			<rect x="5" y="58" class="st4" width="66" height="0.3"/>
			<rect x="5" y="57.7" class="st5" width="66" height="0.3"/>
			<rect x="5" y="57.5" class="st6" width="66" height="0.3"/>
			<rect x="5" y="57.2" class="st7" width="66" height="0.3"/>
			<rect x="5" y="56.9" class="st8" width="66" height="0.3"/>
			<rect x="5" y="56.6" class="st9" width="66" height="0.3"/>
			<rect x="5" y="56.3" class="st10" width="66" height="0.3"/>
			<rect x="5" y="56" class="st11" width="66" height="0.3"/>
			<rect x="5" y="55.7" class="st12" width="66" height="0.3"/>
			<rect x="5" y="55.4" class="st13" width="66" height="0.3"/>
			<rect x="5" y="55.1" class="st14" width="66" height="0.3"/>
			<rect x="5" y="54.8" class="st15" width="66" height="0.3"/>
			<rect x="5" y="54.5" class="st16" width="66" height="0.3"/>
			<rect x="5" y="54.2" class="st17" width="66" height="0.3"/>
			<rect x="5" y="53.9" class="st18" width="66" height="0.3"/>
			<rect x="5" y="53.6" class="st19" width="66" height="0.3"/>
			<rect x="5" y="53.3" class="st20" width="66" height="0.3"/>
			<rect x="5" y="53" class="st21" width="66" height="0.3"/>
			<rect x="5" y="52.8" class="st22" width="66" height="0.3"/>
			<rect x="5" y="52.5" class="st23" width="66" height="0.3"/>
			<rect x="5" y="52.2" class="st24" width="66" height="0.3"/>
			<rect x="5" y="51.9" class="st25" width="66" height="0.3"/>
			<rect x="5" y="51.6" class="st26" width="66" height="0.3"/>
			<rect x="5" y="51.3" class="st27" width="66" height="0.3"/>
			<rect x="5" y="51" class="st28" width="66" height="0.3"/>
			<rect x="5" y="50.7" class="st29" width="66" height="0.3"/>
			<rect x="5" y="50.4" class="st30" width="66" height="0.3"/>
			<rect x="5" y="50.1" class="st31" width="66" height="0.3"/>
			<rect x="5" y="49.8" class="st32" width="66" height="0.3"/>
			<rect x="5" y="49.5" class="st33" width="66" height="0.3"/>
			<rect x="5" y="49.2" class="st34" width="66" height="0.3"/>
			<rect x="5" y="48.9" class="st35" width="66" height="0.3"/>
			<rect x="5" y="48.6" class="st36" width="66" height="0.3"/>
			<rect x="5" y="48.4" class="st37" width="66" height="0.3"/>
			<rect x="5" y="48.1" class="st38" width="66" height="0.3"/>
			<rect x="5" y="47.8" class="st39" width="66" height="0.3"/>
			<rect x="5" y="47.5" class="st40" width="66" height="0.3"/>
			<rect x="5" y="47.2" class="st41" width="66" height="0.3"/>
			<rect x="5" y="46.9" class="st42" width="66" height="0.3"/>
			<rect x="5" y="46.6" class="st43" width="66" height="0.3"/>
			<rect x="5" y="46.3" class="st44" width="66" height="0.3"/>
			<rect x="5" y="46" class="st45" width="66" height="0.3"/>
			<rect x="5" y="45.7" class="st46" width="66" height="0.3"/>
			<rect x="5" y="45.4" class="st47" width="66" height="0.3"/>
			<rect x="5" y="45.1" class="st48" width="66" height="0.3"/>
			<rect x="5" y="44.8" class="st49" width="66" height="0.3"/>
			<rect x="5" y="44.5" class="st50" width="66" height="0.3"/>
			<rect x="5" y="44.2" class="st51" width="66" height="0.3"/>
			<rect x="5" y="44" class="st52" width="66" height="0.3"/>
			<rect x="5" y="43.7" class="st53" width="66" height="0.3"/>
			<rect x="5" y="43.4" class="st54" width="66" height="0.3"/>
			<rect x="5" y="43.1" class="st55" width="66" height="0.3"/>
			<rect x="5" y="42.8" class="st56" width="66" height="0.3"/>
			<rect x="5" y="42.5" class="st57" width="66" height="0.3"/>
			<rect x="5" y="42.2" class="st58" width="66" height="0.3"/>
			<rect x="5" y="41.9" class="st59" width="66" height="0.3"/>
			<rect x="5" y="41.6" class="st60" width="66" height="0.3"/>
			<rect x="5" y="41.3" class="st61" width="66" height="0.3"/>
			<rect x="5" y="41" class="st62" width="66" height="0.3"/>
			<rect x="5" y="40.7" class="st63" width="66" height="0.3"/>
			<rect x="5" y="40.4" class="st64" width="66" height="0.3"/>
			<rect x="5" y="40.1" class="st65" width="66" height="0.3"/>
			<rect x="5" y="39.8" class="st66" width="66" height="0.3"/>
			<rect x="5" y="39.6" class="st67" width="66" height="0.3"/>
			<rect x="5" y="39.3" class="st68" width="66" height="0.3"/>
			<rect x="5" y="39" class="st69" width="66" height="0.3"/>
			<rect x="5" y="38.7" class="st70" width="66" height="0.3"/>
			<rect x="5" y="38.4" class="st71" width="66" height="0.3"/>
			<rect x="5" y="38.1" class="st72" width="66" height="0.3"/>
			<rect x="5" y="37.8" class="st73" width="66" height="0.3"/>
			<rect x="5" y="37.5" class="st74" width="66" height="0.3"/>
			<rect x="5" y="37.2" class="st75" width="66" height="0.3"/>
			<rect x="5" y="36.9" class="st76" width="66" height="0.3"/>
			<rect x="5" y="36.6" class="st77" width="66" height="0.3"/>
			<rect x="5" y="36.3" class="st78" width="66" height="0.3"/>
			<rect x="5" y="36" class="st79" width="66" height="0.3"/>
			<rect x="5" y="35.7" class="st80" width="66" height="0.3"/>
			<rect x="5" y="35.4" class="st81" width="66" height="0.3"/>
			<rect x="5" y="35.1" class="st82" width="66" height="0.3"/>
			<rect x="5" y="34.9" class="st83" width="66" height="0.3"/>
			<rect x="5" y="34.6" class="st84" width="66" height="0.3"/>
			<rect x="5" y="34.3" class="st85" width="66" height="0.3"/>
			<rect x="5" y="34" class="st86" width="66" height="0.3"/>
			<rect x="5" y="33.7" class="st87" width="66" height="0.3"/>
			<rect x="5" y="33.4" class="st88" width="66" height="0.3"/>
			<rect x="5" y="33.1" class="st89" width="66" height="0.3"/>
			<rect x="5" y="32.8" class="st90" width="66" height="0.3"/>
			<rect x="5" y="32.5" class="st91" width="66" height="0.3"/>
			<rect x="5" y="32.2" class="st92" width="66" height="0.3"/>
			<rect x="5" y="31.9" class="st93" width="66" height="0.3"/>
			<rect x="5" y="31.6" class="st94" width="66" height="0.3"/>
			<rect x="5" y="31.3" class="st95" width="66" height="0.3"/>
			<rect x="5" y="31" class="st96" width="66" height="0.3"/>
			<rect x="5" y="30.7" class="st97" width="66" height="0.3"/>
			<rect x="5" y="30.5" class="st98" width="66" height="0.3"/>
			<rect x="5" y="30.2" class="st99" width="66" height="0.3"/>
			<rect x="5" y="29.9" class="st100" width="66" height="0.3"/>
			<rect x="5" y="29.6" class="st101" width="66" height="0.3"/>
			<rect x="5" y="29.3" class="st102" width="66" height="0.3"/>
			<rect x="5" y="29" class="st103" width="66" height="0.3"/>
			<rect x="5" y="28.7" class="st104" width="66" height="0.3"/>
			<rect x="5" y="28.4" class="st105" width="66" height="0.3"/>
			<rect x="5" y="28.1" class="st106" width="66" height="0.3"/>
			<rect x="5" y="27.8" class="st107" width="66" height="0.3"/>
			<rect x="5" y="27.5" class="st108" width="66" height="0.3"/>
			<rect x="5" y="27.2" class="st109" width="66" height="0.3"/>
			<rect x="5" y="26.9" class="st110" width="66" height="0.3"/>
			<rect x="5" y="26.6" class="st111" width="66" height="0.3"/>
			<rect x="5" y="26.3" class="st112" width="66" height="0.3"/>
			<rect x="5" y="26.1" class="st113" width="66" height="0.3"/>
			<rect x="5" y="26" class="st114" width="66" height="0.1"/>
		</g>
	</g>
	<g>
		<path class="st1" d="M45,91.5H31C16.4,91.5,4.5,79.6,4.5,65V51c0-10.2,5-19.6,13.5-25.3l0.2-0.2l0.3,0.1
			c5.4,2.6,11.9,3.9,19.5,3.9c7.3,0,14.2-1.4,19.4-3.9l0.3-0.1l0.2,0.2c8.5,5.7,13.6,15.2,13.6,25.4v14C71.5,79.6,59.6,91.5,45,91.5
			z M18.3,26.7C10.3,32.2,5.5,41.3,5.5,51v14c0,14.1,11.4,25.5,25.5,25.5h14c14.1,0,25.5-11.4,25.5-25.5V51c0-9.8-4.8-18.9-13-24.4
			c-5.3,2.5-12.2,3.9-19.5,3.9C30.4,30.5,23.8,29.2,18.3,26.7z"/>
	</g>
	<g>
		<path class="st1" d="M60,51h-7c-3.3,0-6.3-1.3-7.8-3.4c-0.3-0.5-0.2-1.1,0.2-1.4c0.5-0.3,1.1-0.2,1.4,0.2C47.9,48,50.4,49,53,49h7
			c0.6,0,1,0.4,1,1S60.6,51,60,51z"/>
	</g>
	<g>
		<path class="st1" d="M23,51h-7c-0.6,0-1-0.4-1-1s0.4-1,1-1h7c2.6,0,5.1-1,6.2-2.6c0.3-0.4,0.9-0.6,1.4-0.2
			c0.4,0.3,0.6,0.9,0.2,1.4C29.3,49.7,26.3,51,23,51z"/>
	</g>
	<g>
		<g>
			<path class="st1" d="M31.5,79c-0.3,0-0.5-0.2-0.5-0.5c0-0.1,0.1-5.5,7-5.5s7,5.4,7,5.5c0,0.3-0.2,0.5-0.5,0.5
				c-0.3,0-0.5-0.2-0.5-0.5c0-0.2-0.1-4.5-6-4.5c-5.9,0-6,4.3-6,4.5C32,78.8,31.8,79,31.5,79z"/>
		</g>
	</g>
	<g>
		<g>
			<ellipse class="st115" cx="21" cy="62.5" rx="6" ry="3.5"/>
		</g>
		<g>
			<path class="st116" d="M25.6,60.3c0.3,0.4,0.4,0.8,0.4,1.2c0,1.9-2.7,3.5-6,3.5c-1.8,0-3.5-0.5-4.6-1.3c0.9,1.3,3,2.3,5.6,2.3
				c3.3,0,6-1.6,6-3.5C27,61.6,26.5,60.9,25.6,60.3z"/>
		</g>
		<g>
			<ellipse class="st117" cx="18.5" cy="62.5" rx="2.5" ry="1.5"/>
		</g>
	</g>
	<g>
		<g>
			<ellipse class="st115" cx="55" cy="62.5" rx="6" ry="3.5"/>
		</g>
		<g>
			<path class="st116" d="M50.4,60.3c-0.3,0.4-0.4,0.8-0.4,1.2c0,1.9,2.7,3.5,6,3.5c1.8,0,3.5-0.5,4.6-1.3c-0.9,1.3-3,2.3-5.6,2.3
				c-3.3,0-6-1.6-6-3.5C49,61.6,49.5,60.9,50.4,60.3z"/>
		</g>
		<g>
			<ellipse class="st117" cx="57.5" cy="62.5" rx="2.5" ry="1.5"/>
		</g>
	</g>
	<g>
		<path class="st118" d="M59.6,55c-0.2-0.1-0.5,0.1-0.6,0.3c0,0-0.8,1.7-6,1.7c-5.3,0-6-1.7-6-1.7c-0.1-0.2-0.3-0.3-0.5-0.3
			c0,0-0.1,0-0.1,0c-0.3,0.1-0.4,0.3-0.4,0.5c0,0,0.6,4.4,7,4.4s7-4.4,7-4.4C60,55.3,59.9,55.1,59.6,55z"/>
		<path class="st118" d="M29.6,55c-0.2-0.1-0.5,0.1-0.6,0.3c0,0-0.8,1.7-6,1.7c-5.3,0-6-1.7-6-1.7c-0.1-0.2-0.3-0.3-0.5-0.3
			c0,0-0.1,0-0.1,0c-0.3,0.1-0.4,0.3-0.4,0.5c0,0,0.6,4.4,7,4.4s7-4.4,7-4.4C30,55.3,29.9,55.1,29.6,55z"/>
	</g>
</g>
</svg>
