<?xml version="1.0" encoding="utf-8"?>
<!-- Generator: Adobe Illustrator 21.0.0, SVG Export Plug-In . SVG Version: 6.00 Build 0)  -->
<svg version="1.1" id="Layer_1" xmlns="http://www.w3.org/2000/svg" xmlns:xlink="http://www.w3.org/1999/xlink" x="0px" y="0px"
	 viewBox="0 0 20 20" style="enable-background:new 0 0 20 20;" xml:space="preserve">
<style type="text/css">
	.st0{fill:#3DA1C5;}
</style>
<path class="st0" d="M15,0H5C3.9,0,3,0.9,3,2v15c0,1.1,0.9,2,2,2h10c1.1,0,2-0.9,2-2V2C17,0.9,16.1,0,15,0z M8,16H6v-2h2V16z M8,13
	H6v-2h2V13z M8,10H6V8h2V10z M11,16H9v-2h2V16z M11,13H9v-2h2V13z M11,10H9V8h2V10z M14,16h-2v-2h2V16z M14,13h-2v-2h2V13z M14,10
	h-2V8h2V10z M15,6H5V3h10V6z"/>
</svg>
