<!-- Generator: Adobe Illustrator 21.1.0, SVG Export Plug-In  -->
<svg version="1.1"
	 xmlns="http://www.w3.org/2000/svg" xmlns:xlink="http://www.w3.org/1999/xlink" xmlns:a="http://ns.adobe.com/AdobeSVGViewerExtensions/3.0/"
	 x="0px" y="0px" width="40px" height="36px" viewBox="0 0 40 36" style="overflow:scroll;enable-background:new 0 0 40 36;"
	 xml:space="preserve">
<style type="text/css">
	.st0{fill:#E12727;}
	.st1{fill:#EA3F3F;}
	.st2{fill:#FF605C;}
</style>
<defs>
</defs>
<g>
	<g>
		<path class="st0" d="M33,6.6c0.1-0.1,0.1-0.2,0.2-0.4c0.8-1.9,0.1-4-1.5-4.7c-1.6-0.7-3.6,0.2-4.4,2.1c-0.1,0.2-0.1,0.3-0.2,0.5
			C26.2,4.1,25.4,4,24.5,4c-1.6,0-3.2,0.3-4.6,0.7c-0.2-0.2-0.4-0.3-0.6-0.5C17,2.5,14.2,2.2,11.9,3c-0.5-0.4-1.1-0.7-1.8-0.7
			c-1.2,0-2.3,0.8-2.7,1.9C7,3.5,6.3,3,5.5,3C4.3,3,3.4,3.9,3.4,5.1c0,1.2,0.9,2.1,2.1,2.1C6.3,7.2,7,6.7,7.4,6
			c0.1,0.4,0.3,0.7,0.6,1C7.6,7.8,7.5,8.6,7.5,9.5c-1.1,0-2.1,1-2.1,2.1c0,1.2,0.9,2.1,2.1,2.1c0.4,0,0.8-0.1,1.1-0.3
			c0.3,0.5,0.7,1,1.2,1.4c-0.2,0.5-0.3,1.1-0.5,1.7c-0.9,0.3-1.8,0.7-2.5,1.3c-0.4-0.4-0.9-0.6-1.5-0.6c-1.2,0-2.1,0.9-2.1,2.1
			c0,0.8,0.5,1.6,1.2,1.9c-0.1,0.4-0.2,0.8-0.2,1.3c0,3.3,3.1,6,7.2,6.3c2.8,4.4,7.6,7.3,13,7.3C33.1,36,40,28.8,40,20
			C40,14.4,37.2,9.5,33,6.6z"/>
		<circle class="st0" cx="24.5" cy="1.7" r="1.6"/>
		<circle class="st0" cx="1.6" cy="1.6" r="1.6"/>
		<circle class="st0" cx="2.1" cy="26.6" r="2.1"/>
		<circle class="st0" cx="10.1" cy="31.3" r="1.6"/>
	</g>
	<path class="st1" d="M25.5,9c-1.1,0-2.1,0.2-3.1,0.5c0.2,1.8-0.2,3.5-1.3,5c-1.1,1.5-2.8,2.4-4.6,2.6c2.1,1.1,3.5,3.1,3.5,5.2
		c0,2-1.2,3.8-3,4.9c1.9,2.8,5,4.7,8.5,4.7C31.3,32,36,26.9,36,20.5C36,14.1,31.3,9,25.5,9z"/>
	<ellipse transform="matrix(0.6031 -0.7976 0.7976 0.6031 -7.3273 21.1929)" class="st2" cx="17.6" cy="18" rx="5.6" ry="6.3"/>
	<ellipse transform="matrix(0.6031 -0.7976 0.7976 0.6031 2.6221 30.5655)" class="st2" cx="32" cy="12.6" rx="2.1" ry="2.2"/>
	<ellipse transform="matrix(0.6031 -0.7976 0.7976 0.6031 -10.926 31.3357)" class="st2" cx="26" cy="26.6" rx="2.1" ry="2.2"/>
</g>
</svg>
