<?xml version="1.0" encoding="utf-8"?>
<!-- Generator: Adobe Illustrator 21.0.0, SVG Export Plug-In . SVG Version: 6.00 Build 0)  -->
<svg version="1.1" id="Layer_1" xmlns="http://www.w3.org/2000/svg" xmlns:xlink="http://www.w3.org/1999/xlink" x="0px" y="0px"
	 viewBox="0 0 20 20" style="enable-background:new 0 0 20 20;" xml:space="preserve">
<style type="text/css">
	.st0{fill:#333333;}
</style>
<path class="st0" d="M16,2H2C0.9,2,0,2.9,0,4v13c0,1.1,0.9,2,2,2h14c1.1,0,2-0.9,2-2v-2h-6h-2v-2V8V7V6h8V4C18,2.9,17.1,2,16,2z"/>
<path class="st0" d="M19,7h-2h-5h-1v1v5v1h1h5h2c0.5,0,1-0.5,1-1V8C20,7.5,19.5,7,19,7z M14.5,12c-0.8,0-1.5-0.7-1.5-1.5
	S13.7,9,14.5,9S16,9.7,16,10.5S15.3,12,14.5,12z"/>
</svg>
