<!-- Generator: Adobe Illustrator 21.1.0, SVG Export Plug-In  -->
<svg version="1.1"
	 xmlns="http://www.w3.org/2000/svg" xmlns:xlink="http://www.w3.org/1999/xlink" xmlns:a="http://ns.adobe.com/AdobeSVGViewerExtensions/3.0/"
	 x="0px" y="0px" width="51.6px" height="44.9px" viewBox="0 0 51.6 44.9" style="enable-background:new 0 0 51.6 44.9;"
	 xml:space="preserve">
<style type="text/css">
	.st0{fill:#D99B57;}
</style>
<defs>
</defs>
<path class="st0" d="M45.5,11.9c-3.4-2-5.8-4.7-7.7-8.9c-0.7-1.5-2.9-1.6-4,1c-0.2,0.5-0.3,0.9-0.4,1.4c-0.8,3.1,0.9,5.3,1.8,6.4
	l0.5,0.6c0,0,0,0.9,0.5,1.6l0.3,0.2c0,0,0,0.1,0,0.1L14.4,0.5C12.7-0.6,10.5,0.1,9.5,2C8.6,3.6,8.9,5.4,10,6.6L6.6,4.5
	C4.9,3.4,2.6,4.1,1.7,6C1.1,7,1,8.1,1.3,9c0.2,1,0.8,1.9,1.6,2.4l1.2,0.7c-1.3-0.1-2.7,0.6-3.4,2c-0.3,0.5-0.4,1-0.5,1.5
	c-0.3,1.6,0.4,3.2,1.5,3.9l3,1.8c-1.5-0.4-3.2,0.3-4,1.9c0,0,0,0,0,0.1c0-0.1,0-0.2,0-0.3c-1.6,1.9-0.5,4.6,1,5.5L3,29.3
	c0,0,14.6,9.1,19.6,12c4.5,2.7,15.9,6.5,22.5,0.4c7.2-6.4,6.5-15.2,6.4-15.8C51.7,18.8,47.8,13.2,45.5,11.9z"/>
</svg>
