<?xml version="1.0" encoding="utf-8"?>
<svg version="1.1" xmlns:xlink="http://www.w3.org/1999/xlink" width="11px" height="6px" xmlns="http://www.w3.org/2000/svg">
  <defs>
    <mask fill="white" id="clip3">
      <path d="M 10.8897795591182 0.61855670103094  C 10.9632598530394 0.687285223367688  11 0.766323024054962  11 0.855670103092763  C 11 0.945017182130577  10.9632598530394 1.02405498281785  10.8897795591182 1.09278350515469  L 5.753507014028 5.89690721649484  C 5.68002672010692 5.96563573883158  5.59552438209755 6  5.5 6  C 5.40447561790245 6  5.31997327989313 5.96563573883158  5.246492985972 5.89690721649484  L 0.110220440881847 1.09278350515469  C 0.0367401469605966 1.02405498281785  0 0.945017182130577  0 0.855670103092763  C 0 0.766323024054962  0.0367401469605966 0.687285223367688  0.110220440881847 0.61855670103094  L 0.661322645290511 0.103092783505161  C 0.734802939211761 0.0343642611684132  0.819305277221133 0  0.914829659318571 0  C 1.01035404141618 0  1.09485637942549 0.0343642611684132  1.16833667334669 0.103092783505161  L 5.5 4.1546391752577  L 9.83166332665337 0.103092783505161  C 9.90514362057445 0.0343642611684132  9.98964595858376 0  10.0851703406814 0  C 10.1806947227789 0  10.2651970607882 0.0343642611684132  10.3386773547095 0.103092783505161  L 10.8897795591182 0.61855670103094  Z " fill-rule="evenodd" />
    </mask>
  </defs>
  <g transform="matrix(1 0 0 1 -48 -745 )">
    <path d="M 10.8897795591182 0.61855670103094  C 10.9632598530394 0.687285223367688  11 0.766323024054962  11 0.855670103092763  C 11 0.945017182130577  10.9632598530394 1.02405498281785  10.8897795591182 1.09278350515469  L 5.753507014028 5.89690721649484  C 5.68002672010692 5.96563573883158  5.59552438209755 6  5.5 6  C 5.40447561790245 6  5.31997327989313 5.96563573883158  5.246492985972 5.89690721649484  L 0.110220440881847 1.09278350515469  C 0.0367401469605966 1.02405498281785  0 0.945017182130577  0 0.855670103092763  C 0 0.766323024054962  0.0367401469605966 0.687285223367688  0.110220440881847 0.61855670103094  L 0.661322645290511 0.103092783505161  C 0.734802939211761 0.0343642611684132  0.819305277221133 0  0.914829659318571 0  C 1.01035404141618 0  1.09485637942549 0.0343642611684132  1.16833667334669 0.103092783505161  L 5.5 4.1546391752577  L 9.83166332665337 0.103092783505161  C 9.90514362057445 0.0343642611684132  9.98964595858376 0  10.0851703406814 0  C 10.1806947227789 0  10.2651970607882 0.0343642611684132  10.3386773547095 0.103092783505161  L 10.8897795591182 0.61855670103094  Z " fill-rule="nonzero" fill="#3da1c5" stroke="none" transform="matrix(1 0 0 1 48 745 )" />
    <path d="M 10.8897795591182 0.61855670103094  C 10.9632598530394 0.687285223367688  11 0.766323024054962  11 0.855670103092763  C 11 0.945017182130577  10.9632598530394 1.02405498281785  10.8897795591182 1.09278350515469  L 5.753507014028 5.89690721649484  C 5.68002672010692 5.96563573883158  5.59552438209755 6  5.5 6  C 5.40447561790245 6  5.31997327989313 5.96563573883158  5.246492985972 5.89690721649484  L 0.110220440881847 1.09278350515469  C 0.0367401469605966 1.02405498281785  0 0.945017182130577  0 0.855670103092763  C 0 0.766323024054962  0.0367401469605966 0.687285223367688  0.110220440881847 0.61855670103094  L 0.661322645290511 0.103092783505161  C 0.734802939211761 0.0343642611684132  0.819305277221133 0  0.914829659318571 0  C 1.01035404141618 0  1.09485637942549 0.0343642611684132  1.16833667334669 0.103092783505161  L 5.5 4.1546391752577  L 9.83166332665337 0.103092783505161  C 9.90514362057445 0.0343642611684132  9.98964595858376 0  10.0851703406814 0  C 10.1806947227789 0  10.2651970607882 0.0343642611684132  10.3386773547095 0.103092783505161  L 10.8897795591182 0.61855670103094  Z " stroke-width="2" stroke="#797979" fill="none" transform="matrix(1 0 0 1 48 745 )" mask="url(#clip3)" />
  </g>
</svg>