<!-- Generator: Adobe Illustrator 21.1.0, SVG Export Plug-In  -->
<svg version="1.1"
	 xmlns="http://www.w3.org/2000/svg" xmlns:xlink="http://www.w3.org/1999/xlink" xmlns:a="http://ns.adobe.com/AdobeSVGViewerExtensions/3.0/"
	 x="0px" y="0px" width="76px" height="91px" viewBox="0 0 76 91" style="overflow:scroll;enable-background:new 0 0 76 91;"
	 xml:space="preserve">
<style type="text/css">
	.st0{fill:#FFE1BD;}
	.st1{fill:#A38469;}
	.st2{fill:#DBB471;}
	.st3{fill:#494949;}
	.st4{fill:#FFB69C;}
	.st5{fill:#FFFFFF;}
	.st6{fill:#B7B7B7;}
</style>
<defs>
</defs>
<g>
	<g>
		<g>
			<g>
				<path class="st0" d="M5,64.5c-2.5,0-4.5-2-4.5-4.5v-3c0-2.5,2-4.5,4.5-4.5h66c2.5,0,4.5,2,4.5,4.5v3c0,2.5-2,4.5-4.5,4.5H5z"/>
			</g>
			<g>
				<path class="st1" d="M71,53c2.2,0,4,1.8,4,4v3c0,2.2-1.8,4-4,4H5c-2.2,0-4-1.8-4-4v-3c0-2.2,1.8-4,4-4H71 M71,52H5
					c-2.8,0-5,2.3-5,5v3c0,2.8,2.3,5,5,5h66c2.8,0,5-2.2,5-5v-3C76,54.3,73.8,52,71,52L71,52z"/>
			</g>
		</g>
		<g>
			<g>
				<path class="st2" d="M38,78.5c-20.7,0-37.5-16.8-37.5-37.4v-5c0-7,2.5-13.8,7.1-19.2l0.2-0.3l-0.2-0.3c-0.1-0.3-0.2-0.4-0.2-0.4
					l0-0.1l0,0c-1.9-2.5-4-5.6-4.3-6.6c1,0.2,1.9,0.3,2.9,0.3c4.3,0,6.8-2.4,6.9-2.5c0.3-0.4,0.1-0.6-0.1-0.8c-1.5-2-2.1-3-2.4-3.5
					c1.3,0.2,2.8,0.3,4.5,0.3c4.3,0,9.3-0.8,13.2-1.4c4.4-0.8,8.6-1.2,12.4-1.2c15.8,0,23.1,6.8,24.7,13.1l0,0.2l0.1,0.1
					c6.5,5.6,10.2,13.7,10.2,22.2v5C75.5,61.7,58.7,78.5,38,78.5z"/>
			</g>
			<g>
				<path class="st1" d="M40.5,1C56,1,63.2,7.6,64.7,13.7l0.1,0.3l0.2,0.2c6.4,5.5,10,13.5,10,21.8v5C75,61.4,58.4,78,38,78
					S1,61.4,1,41.1v-5c0-6.9,2.5-13.6,7-18.8l0.4-0.5l-0.3-0.6c-0.1-0.2-0.2-0.4-0.2-0.4l0-0.1l-0.1-0.1c-1.5-2-3.1-4.3-3.9-5.7
					C4.6,10,5.3,10,5.9,10c4.5,0,7.1-2.6,7.2-2.7l0.1-0.1l0-0.1c0.4-0.6,0-1.2-0.1-1.3c-0.9-1.2-1.4-2-1.8-2.5
					c1.1,0.1,2.3,0.2,3.6,0.2c4.4,0,9.4-0.8,13.3-1.4C32.6,1.4,36.7,1,40.5,1 M40.5,0C36.8,0,32.7,0.4,28,1.2
					c-4.2,0.7-8.9,1.4-13.1,1.4c-1.8,0-3.4-0.1-4.9-0.4c0,0-0.1,0-0.1,0c-1,0,2.6,4.5,2.6,4.5c0,0-2.3,2.4-6.5,2.4
					C5,9,4.1,8.9,3,8.6c-0.1,0-0.1,0-0.2,0C1.2,8.6,7,16.1,7,16.1s0.1,0.2,0.2,0.5C2.7,21.8,0,28.6,0,36.1v5C0,62,17,79,38,79
					s38-17,38-37.9v-5c0-9-4-17.1-10.3-22.6C64.1,7.3,57.2,0,40.5,0L40.5,0z"/>
			</g>
		</g>
		<g>
			<g>
				<path class="st0" d="M31,90.5C16.9,90.5,5.5,79.1,5.5,65V51c0-9.7,4.8-18.8,12.8-24.3c5.5,2.5,12.1,3.8,19.7,3.8
					c7.3,0,14.2-1.4,19.5-3.9c8.1,5.5,13,14.6,13,24.4v14c0,14.1-11.4,25.5-25.5,25.5H31z"/>
			</g>
			<g>
				<path class="st1" d="M57.5,27.2C65.3,32.6,70,41.5,70,51v14c0,13.8-11.2,25-25,25H31C17.2,90,6,78.8,6,65V51
					c0-9.5,4.6-18.3,12.4-23.8C23.8,29.7,30.4,31,38,31C45.3,31,52.2,29.6,57.5,27.2 M57.6,26c-5,2.5-12,4-19.6,4
					c-8.7,0-15.1-1.7-19.7-3.9C10.3,31.5,5,40.6,5,51v14c0,14.4,11.6,26,26,26h14c14.4,0,26-11.6,26-26V51
					C71,40.6,65.7,31.4,57.6,26L57.6,26z"/>
			</g>
		</g>
	</g>
	<path class="st1" d="M44.6,73c-0.2-0.1-0.5,0.1-0.6,0.3c0,0-0.8,1.7-6,1.7c-5.3,0-6-1.7-6-1.7c-0.1-0.2-0.3-0.4-0.6-0.3
		c-0.3,0.1-0.4,0.3-0.4,0.5c0,0,0.6,4.4,7,4.4s7-4.4,7-4.4C45,73.3,44.9,73.1,44.6,73z"/>
	<g>
		<path class="st1" d="M30,45c-0.3,0-0.6-0.1-0.8-0.4C28.1,43,25.6,42,23,42s-5.1,1-6.2,2.6c-0.3,0.4-0.9,0.6-1.4,0.2
			c-0.4-0.3-0.6-0.9-0.2-1.4c1.5-2.1,4.5-3.4,7.8-3.4s6.3,1.3,7.8,3.4c0.3,0.4,0.2,1.1-0.2,1.4C30.4,44.9,30.2,45,30,45z"/>
	</g>
	<path class="st3" d="M53,56c-6.4,0-7,4.4-7,4.4c0,0.2,0.1,0.5,0.4,0.5c0.2,0.1,0.5-0.1,0.6-0.3c0,0,0.8-1.7,6-1.7
		c5.3,0,6,1.7,6,1.7c0.1,0.2,0.3,0.3,0.5,0.3c0,0,0.1,0,0.1,0c0.3-0.1,0.4-0.3,0.4-0.5C60,60.4,59.4,56,53,56z"/>
	<g>
		<ellipse class="st4" cx="20" cy="69.5" rx="6" ry="3.5"/>
	</g>
	<g>
		<ellipse class="st4" cx="56" cy="69.5" rx="6" ry="3.5"/>
	</g>
	<g>
		<path class="st1" d="M59,49h-7c-3.3,0-6.3-1.3-7.8-3.4c-0.3-0.4-0.2-1.1,0.2-1.4c0.5-0.3,1.1-0.2,1.4,0.2C46.9,46,49.4,47,52,47h7
			c0.6,0,1,0.4,1,1S59.6,49,59,49z"/>
	</g>
	<g>
		<g>
			<circle class="st5" cx="23" cy="58" r="7.5"/>
		</g>
		<g>
			<path class="st6" d="M23,51c3.9,0,7,3.1,7,7s-3.1,7-7,7s-7-3.1-7-7S19.1,51,23,51 M23,50c-4.4,0-8,3.6-8,8s3.6,8,8,8s8-3.6,8-8
				S27.4,50,23,50L23,50z"/>
		</g>
	</g>
	<path class="st3" d="M23.5,53c-1.9,0-3.5,1.6-3.5,3.5s1.6,3.5,3.5,3.5s3.5-1.6,3.5-3.5S25.4,53,23.5,53z M24,56c-0.6,0-1-0.4-1-1
		s0.4-1,1-1s1,0.4,1,1S24.6,56,24,56z"/>
</g>
</svg>
