<!-- Generator: Adobe Illustrator 21.1.0, SVG Export Plug-In  -->
<svg version="1.1"
	 xmlns="http://www.w3.org/2000/svg" xmlns:xlink="http://www.w3.org/1999/xlink" xmlns:a="http://ns.adobe.com/AdobeSVGViewerExtensions/3.0/"
	 x="0px" y="0px" width="32px" height="34px" viewBox="0 0 32 34" style="overflow:scroll;enable-background:new 0 0 32 34;"
	 xml:space="preserve">
<style type="text/css">
	.st0{fill:#E23827;}
	.st1{fill:#FC8475;}
	.st2{fill:#497A4F;}
	.st3{fill:#BF1B1B;}
	.st4{fill:#72AA68;}
</style>
<defs>
</defs>
<g>
	<path class="st0" d="M32,18c0,8.8-7.2,16-16,16S0,26.8,0,18C0,3,16,8,16,8S32,3,32,18z"/>
	<path class="st1" d="M8.9,13c-1.8-0.2-3.4-0.7-4.4-1.6C4.3,11.6,4.1,11.8,4,12c-1.4,2.1-0.1,4.6,2.7,5.5c2.9,1,6.3,0,7.7-2.1
		c0.7-1.2,0.7-2.4,0-3.5C13,12.7,11,13.1,8.9,13z"/>
	<path class="st2" d="M24,7c-2.7,0.5-5,0.4-7.2-0.7c0,0,0-0.1,0.1-0.1c0-0.1,0.1-0.3,0.1-0.4c-0.2,0.1-0.4,0.2-0.6,0.3
		c-0.2-0.1-0.4-0.2-0.5-0.3c0,0.1-0.2,0.4-0.5,0.7C13.2,7.4,10.5,7.5,8,7C6.7,6.7,5.7,6.6,4.8,6c0.7,1.4,2.1,2.6,3.8,3.2
		c2.5,0.9,5.2,0.4,6.9-1.1c1.5,2,4.7,2.2,7.6,1.1C24.9,8.6,26.3,6.4,27,5C26.1,5.6,25.3,6.7,24,7z"/>
	<path class="st3" d="M26.2,7.9c1.6,1.8,1.8,4.4,1.8,8.1C28,24.3,19,31,13,31c-3.5,0-6.7-1.1-9.4-2.8C6.6,31.7,11,34,16,34
		c8.8,0,16-7.2,16-16C32,11.9,29.4,9.1,26.2,7.9z"/>
	<path class="st4" d="M22.3,5.6c-1.7,1.2-3.4,1.2-5.3,0.6V0l-2,2v4.6c-0.9,0.2-1.8,0.3-3,0.1c-2-0.2-3.1-1-3.5-2.5
		c0.1,1.3-0.5,1.5,0.2,2.6c1.7,2.3,5.3,2,7.4,0.3c1.6,2.1,4.7,2.1,6.4,0.3c0.9-0.9,1.4-2.3,1.4-3.6C23.6,4.5,23,5.1,22.3,5.6z"/>
</g>
</svg>
