<?xml version="1.0" encoding="utf-8"?>
<!-- Generator: Adobe Illustrator 21.0.0, SVG Export Plug-In . SVG Version: 6.00 Build 0)  -->
<svg version="1.1" id="Layer_1" xmlns="http://www.w3.org/2000/svg" xmlns:xlink="http://www.w3.org/1999/xlink" x="0px" y="0px"
	 viewBox="0 0 20 20" style="enable-background:new 0 0 20 20;" xml:space="preserve">
<style type="text/css">
	.st0{fill:#3DA1C5;}
</style>
<path class="st0" d="M16,15c2.2,0,4-1.8,4-4h0c0-0.1,0-0.1,0-0.2L17,4h1V2h-7V0H9v2H2v2h1l-3,6.8c0,0.1,0,0.1,0,0.2h0
	c0,2.2,1.8,4,4,4s4-1.8,4-4h0c0-0.1,0-0.1,0-0.2L5,4h4v14H2v2h16v-2h-7V4h4l-3,6.8c0,0.1,0,0.1,0,0.2h0C12,13.2,13.8,15,16,15z
	 M1,11l3-6.8L7,11H1z M16,4.2l3,6.8H13L16,4.2z"/>
</svg>
