<?xml version="1.0" encoding="utf-8"?>
<!-- Generator: Adobe Illustrator 21.0.0, SVG Export Plug-In . SVG Version: 6.00 Build 0)  -->
<svg version="1.1" id="Layer_1" xmlns="http://www.w3.org/2000/svg" xmlns:xlink="http://www.w3.org/1999/xlink" x="0px" y="0px"
	 viewBox="0 0 20 20" style="enable-background:new 0 0 20 20;" xml:space="preserve">
<style type="text/css">
	.st0{fill:#3DA1C5;}
</style>
<g>
	<path class="st0" d="M8,12c0-0.5,0.5-1,1-1h2c0.5,0,1,0.5,1,1h7V6c0-1.1-0.9-2-2-2h-3V2c0-0.5-0.5-1-1-1H7C6.5,1,6,1.5,6,2v2H3
		C1.9,4,1,4.9,1,6v6H8z M7,2h6v2H7V2z"/>
	<path class="st0" d="M1,14v2c0,1.1,0.9,2,2,2h14c1.1,0,2-0.9,2-2v-2H1z"/>
</g>
</svg>
