<?xml version="1.0" encoding="utf-8"?>
<!-- Generator: Adobe Illustrator 21.0.0, SVG Export Plug-In . SVG Version: 6.00 Build 0)  -->
<svg version="1.1" id="Layer_1" xmlns="http://www.w3.org/2000/svg" xmlns:xlink="http://www.w3.org/1999/xlink" x="0px" y="0px"
	 viewBox="0 0 20 20" style="enable-background:new 0 0 20 20;" xml:space="preserve">
<style type="text/css">
	.st0{fill:#333333;}
</style>
<g>
	<path class="st0" d="M6,0c3.3,0,6,0.7,6,1c0,0.6-2.7,1-6,1S0,1.6,0,1C0,0.7,2.7,0,6,0z"/>
	<path class="st0" d="M6,2C2.7,2,0,1.6,0,1v1c0,0.6,2.7,1,6,1s6-0.4,6-1V1C12,1.6,9.3,2,6,2z"/>
	<g>
		<path class="st0" d="M13.9,11H13v2h0.1h0.8c0.6,0,1-0.4,1-1S14.4,11,13.9,11z"/>
		<path class="st0" d="M13.5,7C9.9,7,7,9.9,7,13.5S9.9,20,13.5,20s6.5-2.9,6.5-6.5S17.1,7,13.5,7z M13.9,14h-0.8H13v1h1.9v1H13v1h-1
			v-1h-1v-1h1v-1h-1v-1h1v-3h1.9c1.1,0,2,0.9,2,2S15,14,13.9,14z"/>
	</g>
	<path class="st0" d="M6.3,17c-0.1,0-0.2,0-0.3,0c-3.3,0-6-0.4-6-1v2c0,0.6,2.7,1,6,1c0.6,0,1.1,0,1.7,0C7.1,18.4,6.7,17.7,6.3,17z"
		/>
	<path class="st0" d="M5.5,13.5c0-0.2,0-0.3,0-0.5C2.4,13,0,12.5,0,12v2c0,0.5,2.5,1,5.6,1C5.6,14.5,5.5,14,5.5,13.5z"/>
	<path class="st0" d="M6.9,9C6.6,9,6.3,9,6,9C2.7,9,0,8.6,0,8v2c0,0.5,2.6,1,5.9,1C6.1,10.3,6.5,9.6,6.9,9z"/>
	<path class="st0" d="M9,6.9c0.9-0.6,1.9-1,3-1.2V4c0,0.6-2.7,1-6,1S0,4.6,0,4v2c0,0.6,2.7,1,6,1C7.1,7,8.1,6.9,9,6.9z"/>
</g>
</svg>
