<!-- Generator: Adobe Illustrator 21.1.0, SVG Export Plug-In  -->
<svg version="1.1"
	 xmlns="http://www.w3.org/2000/svg" xmlns:xlink="http://www.w3.org/1999/xlink" xmlns:a="http://ns.adobe.com/AdobeSVGViewerExtensions/3.0/"
	 x="0px" y="0px" width="51.4px" height="46.6px" viewBox="0 0 51.4 46.6" style="enable-background:new 0 0 51.4 46.6;"
	 xml:space="preserve">
<style type="text/css">
	.st0{fill:#FFDD67;}
	.st1{fill:#EBA352;}
</style>
<defs>
</defs>
<g>
	<g>
		<path class="st0" d="M46.4,14.4c-3.2-2.2-5.4-5.1-7-9.5c-0.6-1.5-2.8-1.8-4.1,0.7c-1.9,3.6-0.1,6.5,0.9,7.8l0.5,0.6
			c0,0,0.3,1.1,0.8,2.4c-2.7-0.6-5.7,0.9-7.8,3.7c-2.2,2.9-7.4,7.9-9.6,10.8c-2.7,3.5-2,8.5,1,10.7c0,0,15.7,11.5,26.1-2.6
			C55.4,28,49.6,16.6,46.4,14.4"/>
		<path class="st0" d="M41.1,18.6c1.6,1.2,2,3.5,0.8,5.3c-1.1,1.8-3.4,2.3-5,1.1L12,7.1c-1.6-1.2-2-3.5-0.8-5.3
			c1.1-1.8,3.4-2.3,5-1.1L41.1,18.6"/>
	</g>
	<path class="st1" d="M28.2,16.6L12.3,5.1c-0.9-0.6-1.5-1.6-1.2-3.1C10,4,10.7,6,12,7l15.9,11.5C29.5,19.7,29.8,17.8,28.2,16.6"/>
	<path class="st0" d="M33,22.1c1.6,1.2,2,3.5,0.8,5.3c-1.1,1.8-3.4,2.3-5,1.1l-24.9-18C2.3,9.3,1.9,7,3.1,5.2c1.1-1.8,3.4-2.3,5-1.1
		L33,22.1"/>
	<path class="st1" d="M23.4,22.5L4.2,8.6C3.3,8,2.7,6.8,3,5.5c-1.1,2-0.5,4.2,0.9,5.2l19.3,13.7C24.7,25.6,25,23.6,23.4,22.5"/>
	<path class="st0" d="M31.4,30.1c1.6,1.2,2,3.5,0.8,5.3c-1.1,1.8-3.4,2.3-5,1.1l-24.9-18c-1.6-1.2-2-3.5-0.8-5.3
		c1.1-1.8,3.4-2.3,5-1.1L31.4,30.1"/>
	<path class="st1" d="M19.6,28.9l-17-12.2c-0.9-0.6-1.5-2-1.1-3.4c-1.3,1.9-0.8,4.4,0.6,5.4l17.2,12.1C20.9,32,21.2,30.1,19.6,28.9"
		/>
	<path class="st0" d="M30.7,39.1c1.6,1.2-9.8,2.4-11.4,1.2L1.7,27.6c-1.6-1.2-2-3.5-0.8-5.3c1.1-1.8,3.4-2.3,5-1.1L30.7,39.1"/>
	<g>
		<path class="st1" d="M51.3,28.7c0,0-1.7,8.8-8.7,14.1c-6.2,4.7-15.8,0.6-20.4-2.4c-4.8-3.3-7.2-4.9-18.8-13.7
			c-2.2-1.7-2.8-2.8-2.5-4.6c-1.7,1.8-0.8,4.6,0.6,5.6l1.2,0.8c0,0,13.9,10.2,18.6,13.4c4.3,3,15.4,7.7,22.4,2.1
			C51.6,37.9,51.3,28.7,51.3,28.7"/>
		<path class="st1" d="M39.4,17.2c-2-2.1-2.1-5.1-2.1-5.1l-0.5-0.6c-0.8-1-2.1-3.1-1.6-5.6c-1.9,3.5,0,6.3,0.9,7.5l0.5,0.6
			c0,0-0.1,0.9,0.4,1.6L39.4,17.2"/>
	</g>
</g>
</svg>
