<?xml version="1.0" encoding="utf-8"?>
<svg version="1.1" xmlns:xlink="http://www.w3.org/1999/xlink" width="28px" height="28px" xmlns="http://www.w3.org/2000/svg">
  <g transform="matrix(1 0 0 1 -544 -1268 )">
    <path d="M 12 4  L 12 0  L 16 0  L 16 4  L 20 4  L 20 8  L 24 8  L 24 12  L 28 12  L 28 16  L 24 16  L 24 20  L 20 20  L 20 24  L 16 24  L 16 28  L 12 28  L 12 24  L 16 24  L 16 20  L 20 20  L 20 16  L 24 16  L 24 12  L 20 12  L 20 8  L 16 8  L 16 4  L 12 4  Z M 16 12  L 0 12  L 0 16  L 16 16  L 16 12  Z " fill-rule="nonzero" fill="#ffffff" stroke="none" transform="matrix(1 0 0 1 544 1268 )" />
  </g>
</svg>