<!-- Generator: Adobe Illustrator 24.1.2, SVG Export Plug-In  -->
<svg version="1.1" xmlns="http://www.w3.org/2000/svg" xmlns:xlink="http://www.w3.org/1999/xlink" x="0px" y="0px" width="14.2px"
	 height="17px" viewBox="0 0 14.2 17" style="overflow:visible;enable-background:new 0 0 14.2 17;" xml:space="preserve">
<style type="text/css">
	.st0{fill:#FFFFFF;}
</style>
<defs>
</defs>
<path class="st0" d="M14.1,11.9L14.1,11.9L14.1,11.9c-0.9-2.2-2.5-3.1-3.4-3.6l-0.3-0.1c0-0.5,0-1-0.2-1.6l-0.1,0l0.1,0
	C9.4,4.5,8.4,4,7.6,3.6l0,0L7,1.5c0.4-0.1,0.6-0.4,0.6-0.8C7.7,0.3,7.3,0,6.9,0S6.1,0.3,6.1,0.8c0,0.4,0.2,0.7,0.6,0.7L5.9,3.2l0,0
	l0,0C4.8,3.1,4,3.5,3.3,4.1C2.7,3.8,1.8,3.4,1.2,2.3C1.3,2.2,1.4,2,1.4,1.8c0-0.4-0.3-0.7-0.7-0.7S0,1.5,0,1.8s0.3,0.7,0.7,0.7
	l0.2,0C1.3,3.1,2,3.7,2.2,5.3L2.2,5.4l0.1,0.1L2.2,5.4C1,7.3,1.4,9.7,2.4,10.8c-1,2.5-1,4.7-0.1,5.9l0,0l0,0
	c0.1,0.2,0.3,0.2,0.5,0.2c0.2,0,0.4-0.1,0.6-0.2c0.3-0.2,0.4-0.5,0.3-0.7l-0.1,0.1L3.7,16c-0.6-1.2-0.5-2.7,0.3-4.4
	c0.4,0.1,0.8,0.2,1.1,0.2l0.1,0.7c0.3,1.4,0.5,2.8,1.3,4C6.7,16.9,7,17,7.4,17c0.1,0,0.2,0,0.4-0.1c0.4-0.1,0.6-0.4,0.5-0.7l-0.1,0
	l0.1,0C8,15.6,7.8,15,7.6,14.5c-0.4-0.9-0.7-1.7-0.9-2.7c0.4,0,0.8-0.1,1.2-0.3c0.8,0.7,1.7,1.5,2.7,3.4h0c0.1,0.1,0.2,0.2,0.4,0.2
	c0.1,0,0.2,0,0.3-0.1c0.4-0.2,0.7-0.5,0.5-1v0c-0.4-1.8-1.4-2.8-2.4-3.5c0.2-0.2,0.3-0.4,0.4-0.6c0.8,0.4,1.9,1,3.1,2.8l0,0.1l0,0
	c0.2,0.2,0.3,0.2,0.5,0.2c0.1,0,0.2,0,0.3-0.1C14.1,12.7,14.2,12.3,14.1,11.9z M5.2,9.4c-0.9,0-1.7-0.8-1.7-1.7S4.3,6,5.2,6
	c0.9,0,1.7,0.8,1.7,1.7S6.2,9.4,5.2,9.4z M11.8,14.1L11.8,14.1L11.8,14.1L11.8,14.1z M5.9,8.1c0,0.4-0.3,0.7-0.7,0.7
	S4.5,8.5,4.5,8.1c0-0.4,0.3-0.7,0.7-0.7S5.9,7.7,5.9,8.1z"/>
</svg>
