<?xml version="1.0" encoding="utf-8"?>
<svg version="1.1" xmlns:xlink="http://www.w3.org/1999/xlink" width="100px" height="20px" xmlns="http://www.w3.org/2000/svg">
  <g transform="matrix(1 0 0 1 -794 -1346 )">
    <path d="M 16 4  L 16 0  L 8 0  L 8 4  L 4 4  L 4 8  L 0 8  L 0 12  L 4 12  L 4 16  L 8 16  L 8 20  L 16 20  L 16 16  L 20 16  L 20 12  L 24 12  L 24 8  L 20 8  L 20 4  L 16 4  Z M 8 4  L 16 4  L 16 8  L 20 8  L 20 12  L 16 12  L 16 16  L 8 16  L 8 12  L 4 12  L 4 8  L 8 8  L 8 4  Z M 40 8  L 40 4  L 36 4  L 36 8  L 40 8  L 40 12  L 44 12  L 44 16  L 48 16  L 48 20  L 52 20  L 52 16  L 56 16  L 56 12  L 60 12  L 60 8  L 64 8  L 64 4  L 60 4  L 60 8  L 56 8  L 56 12  L 52 12  L 52 16  L 48 16  L 48 12  L 44 12  L 44 8  L 40 8  Z M 84 4  L 84 0  L 92 0  L 92 4  L 84 4  Z M 84 8  L 80 8  L 80 4  L 84 4  L 84 8  Z M 80 8  L 80 12  L 76 12  L 76 8  L 80 8  Z M 84 12  L 84 16  L 80 16  L 80 12  L 84 12  Z M 84 16  L 92 16  L 92 20  L 84 20  L 84 16  Z M 92 12  L 96 12  L 96 16  L 92 16  L 92 12  Z M 96 12  L 96 8  L 100 8  L 100 12  L 96 12  Z M 92 8  L 96 8  L 96 4  L 92 4  L 92 8  Z " fill-rule="nonzero" fill="#ffffff" stroke="none" transform="matrix(1 0 0 1 794 1346 )" />
  </g>
</svg>