<?xml version="1.0" encoding="utf-8"?>
<svg version="1.1" xmlns:xlink="http://www.w3.org/1999/xlink" width="48px" height="28px" xmlns="http://www.w3.org/2000/svg">
  <g transform="matrix(1 0 0 1 -57 -54 )">
    <path d="M 4 24  L 0 24  L 0 28  L 20 28  L 20 24  L 8 24  L 8 20  L 3.99999976158142 20  L 4 24  Z M 12 20  L 12 16  L 8 16  L 8 20  L 12 20  Z M 12 16  L 12 12  L 16 12  L 16 16  L 12 16  Z M 12 8  L 8 8  L 8 12  L 12 12  L 12 8  Z M 44 8  L 44 4  L 8 4  L 8 8  L 3.99999976158142 8  L 4 4  L 0 3.99999809265137  L 0 0  L 48 0  L 48 8  L 44 8  L 44 12  L 40 12  L 40 16  L 36 16  L 36 12  L 40 12  L 40 8  L 44 8  Z " fill-rule="nonzero" fill="#ffffff" stroke="none" transform="matrix(1 0 0 1 57 54 )" />
  </g>
</svg>